<svg xmlns="http://www.w3.org/2000/svg" xml:space="preserve" style="fill-rule:evenodd;clip-rule:evenodd;stroke-linejoin:round;stroke-miterlimit:2" viewBox="0 0 3000 600"><path d="M122.714 211.605q-6.11 0-10.726-2.858t-7.186-7.907q-2.568-5.049-2.568-11.629 0-6.615 2.568-11.697 2.57-5.082 7.186-7.957 4.617-2.874 10.726-2.874 3.852 0 7.119 1.163 3.267 1.162 5.742 3.265a17 17 0 0 1 4.011 4.956q1.535 2.855 1.931 6.278h-8.537a11 11 0 0 0-1.14-3.331 9 9 0 0 0-2.113-2.604q-1.293-1.096-3.022-1.708-1.73-.61-3.932-.61-3.692 0-6.352 1.864t-4.075 5.262q-1.414 3.399-1.414 7.993 0 4.553 1.414 7.922t4.062 5.216 6.365 1.847q2.203 0 3.898-.581 1.696-.58 2.923-1.679a9.5 9.5 0 0 0 2.045-2.627q.818-1.53 1.241-3.396h8.637q-.367 3.357-1.891 6.215a17 17 0 0 1-4.02 4.984q-2.496 2.127-5.773 3.31-3.278 1.182-7.119 1.183M148.809 227.637V167.66h8.439v6.172h.103q1.362-2.35 3.408-3.904a14.6 14.6 0 0 1 4.588-2.333 18 18 0 0 1 5.309-.779q5.579 0 9.759 2.815t6.506 7.844q2.328 5.029 2.327 11.654 0 6.636-2.316 11.668t-6.499 7.854q-4.184 2.82-9.806 2.82-2.782 0-5.227-.804a13.9 13.9 0 0 1-4.448-2.432q-2.002-1.628-3.445-4.088h-.096v23.49zm20.079-23.571q3.472 0 6.086-1.717t4.095-5.049q1.48-3.332 1.481-8.171 0-4.872-1.481-8.196-1.48-3.325-4.095-5.042-2.614-1.718-6.086-1.718-3.666 0-6.38 1.851t-4.19 5.209q-1.477 3.357-1.477 7.896 0 4.505 1.477 7.871 1.477 3.365 4.19 5.216t6.38 1.85M196.821 227.637V167.66h8.44v6.172h.103q1.361-2.35 3.408-3.904a14.6 14.6 0 0 1 4.588-2.333 18 18 0 0 1 5.309-.779q5.578 0 9.758 2.815t6.507 7.844 2.327 11.654q0 6.636-2.316 11.668t-6.5 7.854q-4.183 2.82-9.806 2.82-2.78 0-5.227-.804a13.9 13.9 0 0 1-4.447-2.432q-2.003-1.628-3.446-4.088h-.096v23.49zm20.079-23.571q3.472 0 6.087-1.717 2.613-1.717 4.095-5.049 1.48-3.332 1.481-8.171 0-4.872-1.481-8.196-1.482-3.325-4.095-5.042-2.614-1.718-6.087-1.718-3.665 0-6.379 1.851t-4.19 5.209q-1.477 3.357-1.477 7.896 0 4.505 1.477 7.871 1.476 3.365 4.19 5.216t6.379 1.85M1198.04 167.66v7.097h-24.915v-7.097zm-17.339-11.719h8.602v43.318q0 2.38.987 3.326.986.945 3.557.945h4.193v7.098h-5.415q-6.062 0-8.993-2.538t-2.931-7.718zM1219.95 211.627q-4.92 0-8.866-1.575t-6.363-4.71q-2.418-3.134-2.732-7.784h8.491q.352 3.48 2.736 5.365 2.384 1.884 6.556 1.884 4.102 0 6.459-1.67 2.357-1.671 2.357-4.233 0-2.192-1.68-3.518-1.681-1.326-4.49-1.933l-7.122-1.569q-6.069-1.359-9.2-4.447t-3.131-7.863q0-3.801 2.055-6.702 2.054-2.902 5.764-4.534 3.71-1.633 8.637-1.633 4.842 0 8.601 1.718 3.757 1.718 5.938 4.862 2.18 3.143 2.301 7.489h-8.204q-.042-3.14-2.366-5.202t-6.153-2.062q-3.66 0-5.823 1.711-2.162 1.71-2.162 4.192 0 2.185 1.655 3.531 1.654 1.346 4.534 2.006l7.328 1.613q6.294 1.406 9.246 4.301 2.95 2.894 2.951 7.569 0 4.09-2.244 7.053-2.244 2.961-6.162 4.551t-8.911 1.59M2051.85 185.906v24.722h-8.603V150h8.603v28.332h-2.153q2.094-5.781 5.861-8.648t9.11-2.868q4.435 0 7.95 1.922 3.514 1.922 5.559 5.705 2.045 3.785 2.045 9.419v26.766h-8.602v-25.706q0-5.157-2.464-7.791t-6.954-2.634q-2.914 0-5.258 1.181-2.343 1.18-3.719 3.696t-1.375 6.532M2108.36 211.605q-6.124 0-10.763-2.847t-7.222-7.892q-2.583-5.046-2.583-11.655 0-6.643 2.583-11.719t7.222-7.942 10.763-2.867q6.165 0 10.783 2.867 4.619 2.867 7.202 7.942t2.583 11.719q0 6.609-2.583 11.655t-7.202 7.892q-4.618 2.847-10.783 2.847m0-7.424q3.688 0 6.343-1.832t4.091-5.211 1.436-7.927q0-4.624-1.436-7.998t-4.091-5.241q-2.655-1.866-6.343-1.866-3.648 0-6.323 1.85-2.674 1.85-4.111 5.24t-1.436 8.015q0 4.582 1.436 7.944t4.095 5.194q2.658 1.833 6.339 1.832M2152.43 211.627q-4.92 0-8.865-1.575t-6.363-4.71q-2.418-3.134-2.732-7.784h8.491q.352 3.48 2.736 5.365 2.383 1.884 6.556 1.884 4.103 0 6.459-1.67 2.357-1.671 2.357-4.233 0-2.192-1.68-3.518-1.681-1.326-4.49-1.933l-7.122-1.569q-6.07-1.359-9.2-4.447t-3.131-7.863q0-3.801 2.054-6.702 2.055-2.902 5.765-4.534 3.71-1.633 8.637-1.633 4.842 0 8.6 1.718t5.938 4.862q2.18 3.143 2.302 7.489h-8.205q-.04-3.14-2.365-5.202t-6.153-2.062q-3.66 0-5.823 1.711-2.162 1.71-2.162 4.192 0 2.185 1.654 3.531 1.655 1.346 4.535 2.006l7.327 1.613q6.295 1.406 9.247 4.301 2.95 2.894 2.951 7.569 0 4.09-2.244 7.053-2.245 2.961-6.162 4.551-3.918 1.59-8.912 1.59M2198.04 167.66v7.097h-24.915v-7.097zm-17.339-11.719h8.602v43.318q0 2.38.987 3.326.986.945 3.557.945h4.193v7.098h-5.415q-6.062 0-8.993-2.538t-2.931-7.718zM2219.95 211.627q-4.92 0-8.866-1.575t-6.363-4.71q-2.418-3.134-2.732-7.784h8.491q.352 3.48 2.736 5.365 2.384 1.884 6.556 1.884 4.102 0 6.459-1.67 2.357-1.671 2.357-4.233 0-2.192-1.68-3.518-1.681-1.326-4.49-1.933l-7.122-1.569q-6.068-1.359-9.2-4.447-3.13-3.089-3.131-7.863 0-3.801 2.055-6.702 2.054-2.902 5.764-4.534 3.71-1.633 8.637-1.633 4.842 0 8.601 1.718 3.757 1.718 5.938 4.862 2.18 3.143 2.301 7.489h-8.204q-.041-3.14-2.366-5.202t-6.153-2.062q-3.66 0-5.823 1.711-2.162 1.71-2.162 4.192 0 2.185 1.655 3.531 1.654 1.346 4.534 2.006l7.328 1.613q6.294 1.406 9.246 4.301 2.95 2.894 2.951 7.569 0 4.09-2.244 7.053-2.244 2.961-6.162 4.551t-8.911 1.59M314.016 211.625l-5.246-5.246 9.347-9.322q1.522-1.487 3.111-3.025a243 243 0 0 1 3.243-3.079q1.654-1.541 3.255-3.029a262 262 0 0 1 3.143-2.875l.48 2.441a415 415 0 0 1-3.508.183q-1.809.087-3.648.144t-3.658.057h-39.873v-7.551h39.873q1.82 0 3.658.057 1.839.057 3.648.139t3.508.188l-.48 2.463a3258 3258 0 0 0-4.209-3.88 337 337 0 0 1-4.346-4.073 402 402 0 0 1-4.197-4.063l-9.354-9.321 5.253-5.261 27.519 27.526zM1314.02 211.625l-5.246-5.246 9.347-9.322q1.523-1.487 3.111-3.025a243 243 0 0 1 3.243-3.079q1.655-1.541 3.255-3.029a262 262 0 0 1 3.143-2.875l.48 2.441a415 415 0 0 1-3.508.183q-1.809.087-3.648.144t-3.658.057h-39.873v-7.551h39.873q1.82 0 3.658.057 1.839.057 3.648.139t3.508.188l-.48 2.463a3258 3258 0 0 0-4.209-3.88 337 337 0 0 1-4.346-4.073 402 402 0 0 1-4.197-4.063l-9.354-9.321 5.253-5.261 27.519 27.526zM2314.02 211.625l-5.246-5.246 9.347-9.322q1.523-1.487 3.111-3.025a243 243 0 0 1 3.243-3.079q1.655-1.541 3.255-3.029a262 262 0 0 1 3.143-2.875l.48 2.441a415 415 0 0 1-3.508.183q-1.809.087-3.648.144t-3.658.057h-39.873v-7.551h39.873q1.82 0 3.658.057 1.839.057 3.648.139t3.508.188l-.48 2.463a3258 3258 0 0 0-4.209-3.88 337 337 0 0 1-4.346-4.073 402 402 0 0 1-4.197-4.063l-9.354-9.321 5.253-5.261 27.519 27.526zM411.588 211.605q-8.36 0-14.737-3.939-6.376-3.937-9.966-10.983-3.59-7.045-3.589-16.328 0-9.364 3.572-16.413t9.966-10.984 14.754-3.935q4.951 0 9.25 1.476t7.681 4.258 5.598 6.677q2.215 3.894 3.026 8.765h-9.208q-.667-3.092-2.133-5.501-1.467-2.41-3.584-4.073a15 15 0 0 0-4.796-2.512q-2.677-.847-5.776-.847-5.978 0-10.291 2.904-4.312 2.904-6.645 8.095t-2.332 12.09q0 6.858 2.329 12.029 2.328 5.17 6.644 8.075t10.295 2.904q3.098 0 5.756-.844a15.2 15.2 0 0 0 4.776-2.495q2.117-1.65 3.6-4.04t2.19-5.473h9.175q-.785 4.837-3.013 8.728-2.23 3.89-5.615 6.656t-7.681 4.238q-4.294 1.472-9.246 1.472M462.914 200.618v-39.917h7.813v39.917zm-16.032-16.235v-7.487h39.917v7.487zM515.989 200.618v-39.917h7.812v39.917zm-16.032-16.235v-7.487h39.917v7.487zM1381.96 157.917V150h47.629v7.917h-19.255v52.711h-9.052v-52.711zM1431.74 227.637v-7.232h4.642q1.372 0 2.366-.516t1.774-1.608q.782-1.092 1.43-2.831l1.971-5.122-16.613-42.668h9.187l8.581 23.567q1.203 3.32 2.312 6.65 1.11 3.331 2.148 6.657h-2.343a268 268 0 0 1 2.147-6.661 449 449 0 0 1 2.298-6.646l8.486-23.567h9.056l-19.516 50.49q-1.212 3.123-3.006 5.232t-4.16 3.182-5.298 1.073zM1474.99 227.637V167.66h8.439v6.172h.103q1.362-2.35 3.408-3.904a14.6 14.6 0 0 1 4.588-2.333 18 18 0 0 1 5.309-.779q5.578 0 9.759 2.815 4.18 2.816 6.507 7.844t2.326 11.654q0 6.636-2.316 11.668t-6.499 7.854q-4.184 2.82-9.806 2.82-2.782 0-5.227-.804a13.9 13.9 0 0 1-4.448-2.432q-2.002-1.628-3.445-4.088h-.096v23.49zm20.079-23.571q3.472 0 6.086-1.717t4.095-5.049 1.481-8.171q0-4.872-1.481-8.196-1.48-3.325-4.095-5.042-2.614-1.718-6.086-1.718-3.666 0-6.379 1.851-2.714 1.85-4.191 5.209-1.477 3.357-1.477 7.896 0 4.505 1.477 7.871 1.477 3.365 4.191 5.216t6.379 1.85M1541.37 211.605q-6.374 0-10.956-2.885-4.584-2.886-7.043-7.955-2.46-5.07-2.46-11.554 0-6.559 2.556-11.642t7.071-7.984 10.373-2.902q4.564 0 8.257 1.624a18 18 0 0 1 6.336 4.624q2.644 3 4.058 7.112 1.415 4.112 1.415 9.087v2.352h-36.198v-6.512h31.695l-3.783 1.987q0-4.013-1.438-6.955-1.439-2.942-4.06-4.547-2.622-1.606-6.202-1.606-3.538 0-6.147 1.606-2.609 1.605-4.046 4.547-1.439 2.942-1.439 6.955v3.699q0 4.062 1.416 7.172t4.13 4.856q2.714 1.747 6.582 1.747 2.818 0 4.972-.865t3.582-2.416a9.1 9.1 0 0 0 2.041-3.592h8.265q-.807 4.16-3.465 7.321-2.66 3.16-6.658 4.943t-8.854 1.783M1590.06 211.605q-7.248 0-12.499-2.491t-8.096-7.116q-2.844-4.623-2.844-11.018h9.017q.022 3.976 1.738 6.844 1.715 2.867 4.958 4.387t7.762 1.52q4.12 0 7.166-1.189 3.045-1.189 4.747-3.373 1.704-2.184 1.703-5.14 0-2.333-1.158-4.065t-3.705-3.03-6.767-2.283l-6.656-1.572q-9.19-2.17-13.394-6.119-4.206-3.95-4.205-10.236 0-5.344 2.683-9.315t7.556-6.178q4.874-2.208 11.371-2.208 6.534 0 11.336 2.318t7.479 6.6q2.678 4.284 2.847 10.197h-8.736q-.318-5.242-3.816-8.225t-9.252-2.982q-3.627 0-6.443 1.189-2.815 1.188-4.42 3.299t-1.605 4.858q0 2.199 1.17 3.817t3.717 2.854 6.715 2.24l6.518 1.563q4.574 1.076 7.922 2.615 3.346 1.539 5.53 3.595t3.257 4.688q1.072 2.632 1.072 5.886 0 5.447-2.798 9.519-2.798 4.071-7.892 6.311t-11.978 2.24M1639.02 211.605q-6.11 0-10.726-2.858-4.618-2.857-7.186-7.907t-2.569-11.629q0-6.615 2.569-11.697t7.186-7.957q4.617-2.874 10.726-2.874 3.852 0 7.119 1.163 3.266 1.162 5.742 3.265a17 17 0 0 1 4.011 4.956q1.534 2.855 1.93 6.278h-8.536a10.9 10.9 0 0 0-1.141-3.331 9 9 0 0 0-2.112-2.604q-1.293-1.096-3.023-1.708-1.728-.61-3.932-.61-3.692 0-6.351 1.864-2.66 1.865-4.075 5.262-1.414 3.399-1.414 7.993 0 4.553 1.414 7.922 1.415 3.369 4.062 5.216 2.646 1.847 6.364 1.847 2.204 0 3.899-.581 1.695-.58 2.923-1.679a9.5 9.5 0 0 0 2.045-2.627q.818-1.53 1.241-3.396h8.636q-.366 3.357-1.89 6.215a17 17 0 0 1-4.02 4.984q-2.496 2.127-5.773 3.31-3.277 1.182-7.119 1.183M1665.12 210.628V167.66h8.248v6.945h.148q1.179-3.52 3.729-5.5t6.65-1.98q.98 0 1.802.067t1.332.134v8.016q-.486-.1-1.756-.251-1.27-.15-2.783-.15-2.39 0-4.394 1.106-2.006 1.106-3.189 3.385-1.185 2.28-1.185 5.802v25.394zM1694.69 210.628V167.66h8.586v42.968zm-.203-51.758V150h8.992v8.87zM1712.95 227.637V167.66h8.439v6.172h.103q1.362-2.35 3.408-3.904a14.6 14.6 0 0 1 4.588-2.333 18 18 0 0 1 5.309-.779q5.579 0 9.759 2.815t6.507 7.844 2.326 11.654q0 6.636-2.315 11.668t-6.5 7.854q-4.184 2.82-9.806 2.82-2.782 0-5.227-.804a13.9 13.9 0 0 1-4.448-2.432q-2.002-1.628-3.445-4.088h-.096v23.49zm20.079-23.571q3.472 0 6.086-1.717t4.095-5.049 1.481-8.171q0-4.872-1.481-8.196-1.48-3.325-4.095-5.042-2.614-1.718-6.086-1.718-3.666 0-6.379 1.851t-4.191 5.209q-1.476 3.357-1.477 7.896 0 4.505 1.477 7.871 1.478 3.365 4.191 5.216t6.379 1.85M1781.69 167.66v7.097h-24.915v-7.097zm-17.339-11.719h8.602v43.318q0 2.38.986 3.326.987.945 3.558.945h4.193v7.098h-5.415q-6.062 0-8.993-2.538t-2.931-7.718zM2385.52 210.628V150h9.053v25.667h30.125V150h9.053v60.628h-9.053v-27.044h-30.125v27.044zM2462.59 211.605q-6.123 0-10.763-2.847t-7.222-7.892q-2.583-5.046-2.583-11.655 0-6.643 2.583-11.719t7.222-7.942 10.763-2.867q6.165 0 10.783 2.867 4.619 2.867 7.202 7.942t2.583 11.719q0 6.609-2.583 11.655t-7.202 7.892q-4.618 2.847-10.783 2.847m0-7.424q3.688 0 6.343-1.832t4.091-5.211 1.436-7.927q0-4.624-1.436-7.998-1.437-3.375-4.091-5.241t-6.343-1.866q-3.648 0-6.322 1.85-2.676 1.85-4.112 5.24t-1.436 8.015q0 4.582 1.436 7.944 1.437 3.361 4.095 5.194t6.339 1.832M2506.65 211.627q-4.92 0-8.866-1.575t-6.363-4.71q-2.418-3.134-2.732-7.784h8.491q.352 3.48 2.736 5.365 2.384 1.884 6.556 1.884 4.102 0 6.459-1.67 2.357-1.671 2.357-4.233 0-2.192-1.68-3.518-1.681-1.326-4.49-1.933l-7.122-1.569q-6.068-1.359-9.2-4.447-3.13-3.089-3.131-7.863 0-3.801 2.055-6.702 2.054-2.902 5.764-4.534 3.71-1.633 8.637-1.633 4.842 0 8.601 1.718 3.757 1.718 5.938 4.862 2.18 3.143 2.301 7.489h-8.204q-.041-3.14-2.366-5.202t-6.153-2.062q-3.66 0-5.823 1.711-2.162 1.71-2.162 4.192 0 2.185 1.655 3.531 1.654 1.346 4.534 2.006l7.328 1.613q6.294 1.406 9.246 4.301 2.95 2.894 2.951 7.569 0 4.09-2.244 7.053-2.244 2.961-6.162 4.551t-8.911 1.59M2552.27 167.66v7.097h-24.915v-7.097zm-17.339-11.719h8.602v43.318q0 2.38.987 3.326.986.945 3.557.945h4.193v7.098h-5.415q-6.061 0-8.993-2.538-2.931-2.538-2.931-7.718zM2574.17 211.627q-4.92 0-8.865-1.575t-6.364-4.71q-2.418-3.134-2.732-7.784h8.492q.351 3.48 2.735 5.365 2.384 1.884 6.557 1.884 4.101 0 6.458-1.67 2.357-1.671 2.357-4.233 0-2.192-1.68-3.518t-4.489-1.933l-7.122-1.569q-6.07-1.359-9.2-4.447-3.132-3.089-3.131-7.863 0-3.801 2.054-6.702 2.054-2.902 5.764-4.534 3.71-1.633 8.638-1.633 4.841 0 8.6 1.718t5.938 4.862q2.18 3.143 2.302 7.489h-8.205q-.04-3.14-2.366-5.202-2.324-2.062-6.152-2.062-3.661 0-5.824 1.711-2.162 1.71-2.162 4.192 0 2.185 1.655 3.531 1.654 1.346 4.535 2.006l7.327 1.613q6.296 1.406 9.246 4.301 2.952 2.894 2.951 7.569 0 4.09-2.244 7.053-2.244 2.961-6.162 4.551t-8.911 1.59M2619.59 210.628V150h39.459v7.917h-30.407V176.1h28.113v7.813h-28.113v26.715zM2665.85 210.628V167.66h8.585v42.968zm-.204-51.758V150h8.993v8.87zM2696.06 210.628q-6.409 0-9.181-2.379t-2.772-7.95V150h8.602v49.421q0 2.484.857 3.333.856.849 3.289.849h1.69v7.025zM2721.58 211.605q-6.372 0-10.956-2.885-4.583-2.886-7.043-7.955-2.459-5.07-2.459-11.554 0-6.559 2.556-11.642t7.07-7.984q4.516-2.902 10.373-2.902 4.564 0 8.257 1.624a18 18 0 0 1 6.337 4.624q2.643 3 4.058 7.112 1.414 4.112 1.414 9.087v2.352h-36.198v-6.512h31.696l-3.783 1.987q0-4.013-1.439-6.955-1.438-2.942-4.06-4.547-2.62-1.606-6.201-1.606-3.54 0-6.147 1.606-2.608 1.605-4.047 4.547t-1.438 6.955v3.699q0 4.062 1.416 7.172t4.129 4.856q2.714 1.747 6.583 1.747 2.817 0 4.972-.865 2.154-.865 3.581-2.416a9.1 9.1 0 0 0 2.042-3.592h8.265q-.807 4.16-3.466 7.321-2.658 3.16-6.657 4.943t-8.855 1.783M42.59 320.628V277.66h8.351v9.082h-.81q1.218-3.28 3.276-5.486t4.733-3.322a14.5 14.5 0 0 1 5.633-1.118q5.001 0 8.558 2.858t4.381 7.068H75.34a13.5 13.5 0 0 1 2.915-5.097q2.022-2.24 4.961-3.534 2.938-1.295 6.516-1.295 4.003 0 7.258 1.739 3.257 1.738 5.169 5.189 1.914 3.452 1.914 8.624v28.26h-8.601v-27.527q0-4.616-2.568-6.683-2.566-2.067-6.09-2.068-2.841 0-4.918 1.208a8.3 8.3 0 0 0-3.206 3.328q-1.13 2.12-1.13 4.882v26.86h-8.456V292.5q0-3.697-2.386-5.923-2.385-2.226-6.059-2.227a9.6 9.6 0 0 0-4.658 1.174q-2.164 1.174-3.487 3.479-1.321 2.307-1.321 5.699v25.926zM126.858 321.302q-4.28 0-7.642-1.451-3.363-1.45-5.318-4.341-1.956-2.891-1.956-7.164 0-3.688 1.412-6.04a10.4 10.4 0 0 1 3.804-3.726q2.391-1.374 5.453-2.091a56 56 0 0 1 6.319-1.095q4.051-.512 6.4-.822t3.35-.976 1-2.212v-.364q0-2.103-1.027-3.712-1.027-1.61-2.973-2.53-1.947-.921-4.686-.921-2.721 0-4.815.898-2.094.899-3.329 2.457a6.44 6.44 0 0 0-1.398 3.555h-8.453q.233-4.115 2.507-7.247 2.275-3.13 6.261-4.917t9.344-1.787q3.963 0 7.134 1.014 3.17 1.013 5.387 2.9a12.5 12.5 0 0 1 3.385 4.531q1.169 2.644 1.169 5.906v29.461h-8.462v-6.089h-.163q-.89 1.73-2.454 3.282-1.564 1.551-4.056 2.516t-6.193.965m1.753-6.896q3.785 0 6.25-1.372 2.466-1.372 3.657-3.609 1.191-2.235 1.192-4.882v-5.02q-.444.337-1.449.64-1.005.304-2.429.587t-3.077.55-3.36.503a20.5 20.5 0 0 0-4.369 1.072q-2.035.753-3.287 2.091t-1.252 3.539q0 1.832.994 3.159.994 1.328 2.82 2.035t4.31.707M165.782 306.192v-10.164h.77l18.346-18.368h10.65l-20.431 20.769h-1.354zm-7.928 14.436V260h8.602v60.628zm28.384 0-16.192-20.286 5.893-5.988 20.832 26.274zM217.816 321.605q-6.372 0-10.956-2.885t-7.043-7.955-2.459-11.554q0-6.559 2.556-11.642t7.071-7.984 10.372-2.902q4.564 0 8.257 1.624a18 18 0 0 1 6.337 4.624q2.643 3 4.058 7.112 1.414 4.112 1.414 9.087v2.352h-36.197v-6.512h31.695l-3.783 1.987q0-4.013-1.439-6.955-1.438-2.942-4.06-4.547-2.62-1.606-6.201-1.606-3.54 0-6.147 1.606-2.608 1.604-4.047 4.547t-1.438 6.955v3.699q0 4.062 1.416 7.172t4.129 4.856q2.715 1.747 6.583 1.747 2.817 0 4.972-.865 2.154-.865 3.581-2.416a9.1 9.1 0 0 0 2.042-3.592h8.265q-.807 4.16-3.466 7.321-2.658 3.16-6.657 4.943t-8.855 1.783M1042.59 320.628V277.66h8.351v9.082h-.81q1.218-3.28 3.276-5.486t4.733-3.322a14.5 14.5 0 0 1 5.633-1.118q5.001 0 8.558 2.858t4.381 7.068h-1.372a13.5 13.5 0 0 1 2.915-5.097q2.022-2.24 4.961-3.534 2.938-1.295 6.516-1.295 4.003 0 7.258 1.739 3.256 1.738 5.169 5.189 1.914 3.452 1.914 8.624v28.26h-8.601v-27.527q0-4.616-2.568-6.683t-6.09-2.068q-2.841 0-4.918 1.208a8.3 8.3 0 0 0-3.206 3.328q-1.13 2.12-1.13 4.882v26.86h-8.456V292.5q0-3.697-2.386-5.923-2.385-2.226-6.059-2.227a9.6 9.6 0 0 0-4.658 1.174q-2.164 1.174-3.487 3.479-1.321 2.307-1.321 5.699v25.926zM1126.86 321.302q-4.28 0-7.642-1.451-3.363-1.45-5.318-4.341-1.956-2.891-1.956-7.164 0-3.688 1.412-6.04a10.4 10.4 0 0 1 3.804-3.726q2.391-1.374 5.453-2.091a56 56 0 0 1 6.319-1.095q4.051-.512 6.4-.822t3.35-.976 1-2.212v-.364q0-2.103-1.027-3.712-1.027-1.61-2.973-2.53-1.947-.921-4.686-.921-2.721 0-4.815.898-2.094.899-3.329 2.457a6.44 6.44 0 0 0-1.398 3.555h-8.453q.233-4.115 2.507-7.247 2.276-3.13 6.261-4.917t9.344-1.787q3.963 0 7.134 1.014 3.17 1.013 5.387 2.9a12.5 12.5 0 0 1 3.385 4.531q1.169 2.644 1.169 5.906v29.461h-8.462v-6.089h-.163q-.89 1.73-2.454 3.282-1.564 1.551-4.056 2.516t-6.193.965m1.753-6.896q3.785 0 6.25-1.372 2.466-1.372 3.657-3.609 1.192-2.235 1.192-4.882v-5.02q-.444.337-1.449.64-1.005.304-2.429.587t-3.077.55-3.36.503a20.5 20.5 0 0 0-4.369 1.072q-2.035.753-3.287 2.091t-1.252 3.539q0 1.832.994 3.159.995 1.328 2.82 2.035t4.31.707M1165.78 306.192v-10.164h.77l18.346-18.368h10.65l-20.431 20.769h-1.354zm-7.928 14.436V260h8.602v60.628zm28.384 0-16.192-20.286 5.893-5.988 20.832 26.274zM1217.82 321.605q-6.372 0-10.956-2.885t-7.043-7.955-2.459-11.554q0-6.559 2.556-11.642 2.554-5.082 7.071-7.984 4.515-2.902 10.372-2.902 4.564 0 8.257 1.624a18 18 0 0 1 6.337 4.624q2.643 3 4.058 7.112 1.414 4.112 1.414 9.087v2.352h-36.197v-6.512h31.695l-3.783 1.987q0-4.013-1.439-6.955-1.438-2.942-4.06-4.547-2.62-1.606-6.201-1.606-3.54 0-6.147 1.606-2.609 1.604-4.047 4.547t-1.438 6.955v3.699q0 4.062 1.416 7.172t4.129 4.856q2.715 1.747 6.583 1.747 2.817 0 4.972-.865 2.154-.865 3.581-2.416a9.1 9.1 0 0 0 2.042-3.592h8.265q-.807 4.16-3.466 7.321-2.658 3.16-6.657 4.943t-8.855 1.783M2117.97 295.906v24.722h-8.603V260h8.603v28.332h-2.153q2.094-5.781 5.861-8.648t9.11-2.868q4.436 0 7.95 1.922t5.559 5.705q2.045 3.785 2.045 9.419v26.766h-8.602v-25.706q0-5.157-2.464-7.791t-6.954-2.634q-2.913 0-5.258 1.181-2.343 1.18-3.719 3.696t-1.375 6.532M2177.83 321.471q-2.782 0-5.275-.804a14.1 14.1 0 0 1-4.54-2.447q-2.046-1.643-3.49-4.131h-.074v6.539h-8.439V260h8.602v23.876h.074q1.383-2.38 3.392-3.941a14.2 14.2 0 0 1 4.511-2.34 17.6 17.6 0 0 1 5.268-.779q5.579 0 9.759 2.815t6.507 7.844q2.326 5.029 2.326 11.654 0 6.636-2.316 11.668-2.315 5.033-6.499 7.854t-9.806 2.82m-1.739-7.405q3.472 0 6.086-1.717t4.095-5.049q1.48-3.332 1.481-8.171 0-4.872-1.481-8.196-1.48-3.325-4.095-5.042-2.614-1.718-6.086-1.718-3.666 0-6.379 1.851-2.714 1.85-4.191 5.209-1.477 3.357-1.477 7.896 0 4.506 1.477 7.871t4.191 5.216q2.713 1.85 6.379 1.85M2219.95 321.627q-4.92 0-8.866-1.575t-6.363-4.71q-2.418-3.134-2.732-7.784h8.491q.352 3.48 2.736 5.365 2.384 1.884 6.556 1.884 4.102 0 6.459-1.67 2.357-1.671 2.357-4.233 0-2.192-1.68-3.518-1.681-1.326-4.49-1.933l-7.122-1.569q-6.068-1.359-9.2-4.447-3.13-3.089-3.131-7.863 0-3.801 2.055-6.702 2.054-2.902 5.764-4.534 3.71-1.633 8.637-1.633 4.842 0 8.601 1.718 3.757 1.718 5.938 4.862 2.18 3.143 2.301 7.489h-8.204q-.041-3.14-2.366-5.202t-6.153-2.062q-3.66 0-5.823 1.711-2.162 1.71-2.162 4.192 0 2.186 1.655 3.531 1.654 1.346 4.534 2.006l7.328 1.613q6.294 1.406 9.246 4.301 2.95 2.894 2.951 7.569 0 4.09-2.244 7.053-2.244 2.961-6.162 4.551t-8.911 1.59M314.016 321.625l-5.246-5.246 9.347-9.322q1.522-1.487 3.111-3.025a243 243 0 0 1 3.243-3.079q1.654-1.541 3.255-3.029a262 262 0 0 1 3.143-2.875l.48 2.441a415 415 0 0 1-3.508.183q-1.809.087-3.648.144t-3.658.057h-39.873v-7.551h39.873q1.82 0 3.658.057 1.839.057 3.648.139t3.508.188l-.48 2.463a3258 3258 0 0 0-4.209-3.88 337 337 0 0 1-4.346-4.073 402 402 0 0 1-4.197-4.063l-9.354-9.321 5.253-5.261 27.519 27.526zM1314.02 321.625l-5.246-5.246 9.347-9.322q1.523-1.487 3.111-3.025a243 243 0 0 1 3.243-3.079q1.655-1.541 3.255-3.029a262 262 0 0 1 3.143-2.875l.48 2.441a415 415 0 0 1-3.508.183q-1.809.087-3.648.144t-3.658.057h-39.873v-7.551h39.873q1.82 0 3.658.057 1.839.057 3.648.139t3.508.188l-.48 2.463a3258 3258 0 0 0-4.209-3.88 337 337 0 0 1-4.346-4.073 402 402 0 0 1-4.197-4.063l-9.354-9.321 5.253-5.261 27.519 27.526zM2314.02 321.625l-5.246-5.246 9.347-9.322q1.523-1.487 3.111-3.025a243 243 0 0 1 3.243-3.079q1.655-1.541 3.255-3.029a262 262 0 0 1 3.143-2.875l.48 2.441a415 415 0 0 1-3.508.183q-1.809.087-3.648.144t-3.658.057h-39.873v-7.551h39.873q1.82 0 3.658.057 1.839.057 3.648.139t3.508.188l-.48 2.463a3258 3258 0 0 0-4.209-3.88 337 337 0 0 1-4.346-4.073 402 402 0 0 1-4.197-4.063l-9.354-9.321 5.253-5.261 27.519 27.526zM385.524 320.628V260h12.731l13.593 35.511q.559 1.507 1.327 3.709a529 529 0 0 1 1.583 4.599q.813 2.398 1.531 4.549.717 2.152 1.146 3.559h-2.152q.428-1.407 1.13-3.559.7-2.15 1.51-4.549.81-2.397 1.575-4.599l1.291-3.709L434.167 260h12.771v60.628h-8.894v-33.046q0-1.976.035-4.404t.108-5.067.14-5.328q.069-2.69.101-5.189h1.179q-.988 2.966-1.972 5.882-.983 2.917-1.88 5.551a603 603 0 0 1-1.659 4.813 198 198 0 0 1-1.346 3.742l-12.812 33.046h-7.399l-12.9-33.046q-.585-1.564-1.37-3.742a440 440 0 0 1-1.703-4.813q-.918-2.635-1.938-5.551a899 899 0 0 0-2.083-5.882h1.522c.045 1.666.195 8.758.243 10.517q.071 2.639.106 5.067t.035 4.404v33.046zM470.413 321.302q-4.28 0-7.642-1.451-3.363-1.45-5.318-4.341t-1.955-7.164q0-3.688 1.412-6.04a10.4 10.4 0 0 1 3.803-3.726q2.392-1.374 5.453-2.091a56 56 0 0 1 6.319-1.095q4.051-.512 6.4-.822t3.35-.976q1-.666 1.001-2.212v-.364q0-2.103-1.028-3.712-1.027-1.61-2.973-2.53-1.945-.921-4.686-.921-2.721 0-4.815.898-2.094.899-3.329 2.457a6.45 6.45 0 0 0-1.398 3.555h-8.453q.233-4.115 2.508-7.247 2.274-3.13 6.261-4.917t9.343-1.787q3.963 0 7.134 1.014 3.171 1.013 5.387 2.9a12.5 12.5 0 0 1 3.386 4.531q1.168 2.644 1.168 5.906v29.461h-8.461v-6.089h-.163q-.89 1.73-2.455 3.282-1.565 1.551-4.056 2.516t-6.193.965m1.753-6.896q3.786 0 6.251-1.372t3.656-3.609q1.192-2.235 1.192-4.882v-5.02q-.444.337-1.449.64-1.005.304-2.428.587t-3.078.55q-1.653.267-3.359.503a20.5 20.5 0 0 0-4.37 1.072q-2.034.753-3.286 2.091t-1.252 3.539q0 1.832.994 3.159.993 1.328 2.819 2.035t4.31.707M509.337 306.192v-10.164h.77l18.346-18.368h10.651l-20.431 20.769h-1.355zm-7.928 14.436V260h8.602v60.628zm28.385 0-16.193-20.286 5.894-5.988 20.831 26.274zM561.372 321.605q-6.374 0-10.956-2.885-4.584-2.885-7.043-7.955t-2.46-11.554q0-6.559 2.556-11.642t7.071-7.984 10.373-2.902q4.564 0 8.257 1.624a18 18 0 0 1 6.336 4.624q2.644 3 4.058 7.112 1.415 4.112 1.415 9.087v2.352h-36.198v-6.512h31.695l-3.783 1.987q0-4.013-1.438-6.955-1.439-2.942-4.06-4.547-2.622-1.606-6.202-1.606-3.538 0-6.147 1.606-2.608 1.604-4.046 4.547t-1.439 6.955v3.699q0 4.062 1.416 7.172t4.13 4.856q2.713 1.747 6.582 1.747 2.817 0 4.972-.865t3.582-2.416a9.1 9.1 0 0 0 2.041-3.592h8.265q-.807 4.16-3.465 7.321-2.66 3.16-6.658 4.943t-8.854 1.783M591.896 320.628v-49.93q0-3.4 1.442-5.784t4.172-3.649 6.577-1.265h3.211v7.098h-1.872q-2.667 0-3.798 1.143-1.13 1.144-1.13 3.838v48.549zm-7.693-35.871v-7.097h33.152v7.097z" style="fill:#e6edf3;fill-rule:nonzero"/><path d="M614.437 320.628V277.66h8.585v42.968zm-.204-51.758V260h8.993v8.87zM644.652 320.628q-6.41 0-9.182-2.379-2.772-2.377-2.772-7.95V260h8.602v49.421q0 2.484.857 3.333.856.849 3.289.849h1.69v7.025zM670.166 321.605q-6.372 0-10.956-2.885t-7.043-7.955-2.459-11.554q0-6.559 2.556-11.642t7.07-7.984q4.516-2.902 10.373-2.902 4.564 0 8.257 1.624a18 18 0 0 1 6.337 4.624q2.643 3 4.058 7.112 1.414 4.112 1.414 9.087v2.352h-36.197v-6.512h31.695l-3.783 1.987q0-4.013-1.439-6.955-1.438-2.942-4.06-4.547-2.62-1.606-6.201-1.606-3.54 0-6.147 1.606-2.608 1.604-4.047 4.547t-1.438 6.955v3.699q0 4.062 1.416 7.172t4.129 4.856q2.715 1.747 6.583 1.747 2.817 0 4.972-.865 2.154-.865 3.581-2.416a9.1 9.1 0 0 0 2.042-3.592h8.265q-.807 4.16-3.466 7.321-2.658 3.16-6.657 4.943t-8.855 1.783M1385.52 320.628V260h12.731l13.593 35.511q.559 1.507 1.327 3.709a529 529 0 0 1 1.583 4.599q.813 2.398 1.531 4.549.717 2.152 1.146 3.559h-2.152q.428-1.407 1.13-3.559.7-2.15 1.51-4.549.81-2.397 1.575-4.599l1.291-3.709L1434.163 260h12.771v60.628h-8.894v-33.046q0-1.976.035-4.404t.108-5.067.14-5.328q.068-2.69.101-5.189h1.179q-.987 2.966-1.972 5.882-.983 2.917-1.88 5.551a603 603 0 0 1-1.659 4.813 198 198 0 0 1-1.346 3.742l-12.812 33.046h-7.399l-12.9-33.046q-.585-1.564-1.37-3.742a440 440 0 0 1-1.703-4.813q-.918-2.635-1.938-5.551a899 899 0 0 0-2.083-5.882h1.522c.045 1.666.195 8.758.243 10.517q.071 2.639.106 5.067t.035 4.404v33.046zM1470.41 321.302q-4.28 0-7.642-1.451-3.362-1.45-5.318-4.341t-1.955-7.164q0-3.688 1.412-6.04a10.4 10.4 0 0 1 3.803-3.726q2.392-1.374 5.453-2.091a56 56 0 0 1 6.319-1.095q4.051-.512 6.4-.822t3.35-.976 1.001-2.212v-.364q0-2.103-1.028-3.712-1.027-1.61-2.973-2.53-1.946-.921-4.686-.921-2.721 0-4.815.898-2.094.899-3.329 2.457a6.45 6.45 0 0 0-1.398 3.555h-8.453q.233-4.115 2.508-7.247 2.274-3.13 6.261-4.917t9.343-1.787q3.963 0 7.134 1.014 3.171 1.013 5.387 2.9a12.5 12.5 0 0 1 3.386 4.531q1.168 2.644 1.168 5.906v29.461h-8.461v-6.089h-.163q-.89 1.73-2.455 3.282-1.564 1.551-4.056 2.516t-6.193.965m1.753-6.896q3.785 0 6.251-1.372 2.465-1.372 3.656-3.609 1.192-2.235 1.192-4.882v-5.02q-.444.337-1.449.64-1.005.304-2.428.587t-3.078.55q-1.653.267-3.359.503a20.5 20.5 0 0 0-4.37 1.072q-2.034.753-3.286 2.091t-1.252 3.539q0 1.832.994 3.159.993 1.328 2.819 2.035t4.31.707M1509.34 306.192v-10.164h.77l18.346-18.368h10.651l-20.431 20.769h-1.355zm-7.928 14.436V260h8.602v60.628zm28.385 0-16.193-20.286 5.894-5.988 20.831 26.274zM1561.37 321.605q-6.374 0-10.956-2.885-4.584-2.885-7.043-7.955t-2.46-11.554q0-6.559 2.556-11.642t7.071-7.984 10.373-2.902q4.564 0 8.257 1.624a18 18 0 0 1 6.336 4.624q2.644 3 4.058 7.112 1.415 4.112 1.415 9.087v2.352h-36.198v-6.512h31.695l-3.783 1.987q0-4.013-1.438-6.955-1.439-2.942-4.06-4.547-2.622-1.606-6.202-1.606-3.538 0-6.147 1.606-2.608 1.604-4.046 4.547t-1.439 6.955v3.699q0 4.062 1.416 7.172t4.13 4.856q2.714 1.747 6.582 1.747 2.818 0 4.972-.865t3.582-2.416a9.1 9.1 0 0 0 2.041-3.592h8.265q-.807 4.16-3.465 7.321-2.66 3.16-6.658 4.943t-8.854 1.783M1591.9 320.628v-49.93q0-3.4 1.442-5.784t4.172-3.649 6.577-1.265h3.211v7.098h-1.872q-2.667 0-3.798 1.143-1.13 1.144-1.13 3.838v48.549zm-7.693-35.871v-7.097h33.152v7.097z" style="fill:#e6edf3;fill-rule:nonzero"/><path d="M1614.44 320.628V277.66h8.585v42.968zm-.204-51.758V260h8.993v8.87zM1644.65 320.628q-6.41 0-9.182-2.379-2.772-2.377-2.772-7.95V260h8.602v49.421q0 2.484.857 3.333.856.849 3.289.849h1.69v7.025zM1670.17 321.605q-6.372 0-10.956-2.885t-7.043-7.955-2.459-11.554q0-6.559 2.556-11.642t7.07-7.984q4.516-2.902 10.373-2.902 4.564 0 8.257 1.624a18 18 0 0 1 6.337 4.624q2.643 3 4.058 7.112 1.414 4.112 1.414 9.087v2.352h-36.197v-6.512h31.695l-3.783 1.987q0-4.013-1.439-6.955-1.438-2.942-4.06-4.547-2.62-1.606-6.201-1.606-3.54 0-6.147 1.606-2.609 1.604-4.047 4.547t-1.438 6.955v3.699q0 4.062 1.416 7.172t4.129 4.856q2.715 1.747 6.583 1.747 2.817 0 4.972-.865 2.154-.865 3.581-2.416a9.1 9.1 0 0 0 2.042-3.592h8.265q-.807 4.16-3.466 7.321-2.658 3.16-6.657 4.943t-8.855 1.783M2385.52 320.628V260h9.053v25.667h30.125V260h9.053v60.628h-9.053v-27.044h-30.125v27.044zM2457.23 321.302q-4.28 0-7.642-1.451-3.363-1.45-5.318-4.341-1.956-2.891-1.956-7.164 0-3.688 1.412-6.04a10.4 10.4 0 0 1 3.804-3.726q2.391-1.374 5.452-2.091a56 56 0 0 1 6.32-1.095q4.05-.512 6.4-.822 2.349-.31 3.349-.976 1.002-.666 1.001-2.212v-.364q0-2.103-1.027-3.712-1.027-1.61-2.974-2.53-1.945-.921-4.686-.921-2.721 0-4.815.898-2.093.899-3.329 2.457a6.44 6.44 0 0 0-1.397 3.555h-8.453q.233-4.115 2.507-7.247 2.274-3.13 6.261-4.917t9.343-1.787q3.964 0 7.135 1.014 3.17 1.013 5.387 2.9a12.5 12.5 0 0 1 3.385 4.531q1.169 2.644 1.169 5.906v29.461h-8.462v-6.089h-.163q-.89 1.73-2.454 3.282-1.565 1.551-4.056 2.516t-6.193.965m1.753-6.896q3.785 0 6.25-1.372 2.466-1.372 3.657-3.609 1.191-2.235 1.191-4.882v-5.02q-.443.337-1.448.64-1.005.304-2.429.587t-3.077.55-3.36.503a20.5 20.5 0 0 0-4.37 1.072q-2.034.753-3.286 2.091t-1.252 3.539q0 1.832.994 3.159.994 1.328 2.82 2.035 1.824.707 4.31.707M2496.83 295.906v24.722h-8.602V277.66h8.431v10.672h-1.982q2.094-5.781 5.862-8.648 3.767-2.868 9.11-2.868 4.434 0 7.949 1.922t5.56 5.705q2.044 3.785 2.044 9.419v26.766h-8.602v-25.706q0-5.157-2.463-7.791t-6.955-2.634q-2.914 0-5.257 1.181-2.345 1.18-3.72 3.696t-1.375 6.532M2551.39 321.471q-5.581 0-9.785-2.82-4.204-2.822-6.52-7.854t-2.316-11.668q0-6.625 2.327-11.654 2.327-5.028 6.527-7.844 4.2-2.815 9.738-2.815 2.808 0 5.289.779a14.3 14.3 0 0 1 4.494 2.34q2.013 1.561 3.389 3.941h.074V260h8.602v60.628h-8.439v-6.539h-.074q-1.444 2.488-3.491 4.131a14.1 14.1 0 0 1-4.523 2.447q-2.476.804-5.292.804m1.74-7.405q3.673 0 6.382-1.85 2.71-1.851 4.188-5.216 1.476-3.366 1.477-7.871 0-4.539-1.477-7.896t-4.188-5.209q-2.71-1.851-6.382-1.851-3.432 0-6.066 1.718t-4.116 5.042q-1.48 3.324-1.481 8.196 0 4.84 1.481 8.171 1.481 3.332 4.116 5.049t6.066 1.717M2594.83 320.628q-6.41 0-9.181-2.379-2.772-2.377-2.772-7.95V260h8.602v49.421q0 2.484.856 3.333t3.289.849h1.691v7.025zM2620.35 321.605q-6.374 0-10.956-2.885-4.584-2.885-7.043-7.955t-2.46-11.554q0-6.559 2.556-11.642t7.071-7.984 10.373-2.902q4.564 0 8.257 1.624a18 18 0 0 1 6.336 4.624q2.644 3 4.058 7.112 1.415 4.112 1.415 9.087v2.352h-36.198v-6.512h31.695l-3.783 1.987q0-4.013-1.438-6.955-1.439-2.942-4.06-4.547-2.622-1.606-6.202-1.606-3.538 0-6.147 1.606-2.608 1.604-4.046 4.547t-1.439 6.955v3.699q0 4.062 1.416 7.172t4.13 4.856q2.713 1.747 6.582 1.747 2.818 0 4.972-.865t3.582-2.416a9.1 9.1 0 0 0 2.041-3.592h8.265q-.807 4.16-3.465 7.321-2.66 3.16-6.658 4.943t-8.854 1.783M2669.18 321.471q-2.78 0-5.275-.804a14.1 14.1 0 0 1-4.54-2.447q-2.046-1.643-3.49-4.131h-.073v6.539h-8.44V260h8.602v23.876h.074q1.383-2.38 3.393-3.941a14.2 14.2 0 0 1 4.511-2.34 17.6 17.6 0 0 1 5.268-.779q5.578 0 9.758 2.815t6.507 7.844 2.327 11.654q0 6.636-2.316 11.668-2.316 5.033-6.5 7.854-4.183 2.82-9.806 2.82m-1.739-7.405q3.472 0 6.087-1.717 2.613-1.717 4.095-5.049 1.48-3.332 1.481-8.171 0-4.872-1.481-8.196-1.482-3.325-4.095-5.042-2.615-1.718-6.087-1.718-3.665 0-6.379 1.851t-4.19 5.209-1.477 7.896q0 4.506 1.477 7.871 1.476 3.365 4.19 5.216t6.379 1.85M2709.31 321.302q-4.278 0-7.642-1.451-3.362-1.45-5.318-4.341t-1.955-7.164q0-3.688 1.412-6.04a10.4 10.4 0 0 1 3.803-3.726q2.392-1.374 5.453-2.091a56 56 0 0 1 6.32-1.095q4.05-.512 6.4-.822 2.349-.31 3.349-.976t1.001-2.212v-.364q0-2.103-1.027-3.712-1.027-1.61-2.974-2.53-1.946-.921-4.686-.921-2.721 0-4.815.898-2.094.899-3.329 2.457a6.45 6.45 0 0 0-1.398 3.555h-8.452q.233-4.115 2.507-7.247 2.274-3.13 6.261-4.917t9.343-1.787q3.965 0 7.134 1.014 3.171 1.013 5.388 2.9a12.5 12.5 0 0 1 3.385 4.531q1.168 2.644 1.168 5.906v29.461h-8.461v-6.089h-.163q-.89 1.73-2.454 3.282-1.564 1.551-4.056 2.516t-6.194.965m1.753-6.896q3.786 0 6.251-1.372t3.657-3.609q1.191-2.235 1.191-4.882v-5.02q-.444.337-1.448.64-1.005.304-2.429.587t-3.077.55-3.36.503a20.5 20.5 0 0 0-4.37 1.072q-2.035.753-3.286 2.091-1.252 1.339-1.252 3.539 0 1.832.994 3.159.994 1.328 2.819 2.035 1.826.707 4.31.707M2740.31 320.628V277.66h8.247v6.945h.148q1.18-3.52 3.729-5.5t6.65-1.98q.98 0 1.803.067.822.067 1.332.134v8.016q-.488-.1-1.757-.251-1.27-.15-2.783-.15-2.389 0-4.394 1.106t-3.189 3.385-1.184 5.802v25.394zM2784.49 321.627q-4.921 0-8.866-1.575t-6.363-4.71-2.732-7.784h8.491q.352 3.48 2.736 5.365 2.383 1.884 6.556 1.884 4.102 0 6.459-1.67 2.357-1.671 2.357-4.233 0-2.192-1.68-3.518-1.681-1.326-4.49-1.933l-7.122-1.569q-6.07-1.359-9.2-4.447t-3.131-7.863q0-3.801 2.055-6.702 2.053-2.902 5.764-4.534 3.71-1.633 8.637-1.633 4.842 0 8.6 1.718t5.938 4.862q2.18 3.143 2.302 7.489h-8.205q-.04-3.14-2.365-5.202t-6.153-2.062q-3.66 0-5.823 1.711-2.162 1.71-2.162 4.192 0 2.186 1.654 3.531 1.655 1.346 4.535 2.006l7.328 1.613q6.294 1.406 9.246 4.301 2.95 2.894 2.951 7.569 0 4.09-2.244 7.053-2.244 2.961-6.162 4.551t-8.911 1.59M152.272 387.66v7.097h-24.915v-7.097zm-17.339-11.719h8.602v43.318q0 2.38.987 3.326.986.945 3.557.945h4.193v7.098h-5.415q-6.061 0-8.993-2.538-2.931-2.538-2.931-7.718zM176.617 431.605q-6.373 0-10.956-2.885-4.584-2.885-7.043-7.955t-2.459-11.554q0-6.559 2.555-11.642t7.071-7.984q4.515-2.902 10.373-2.902 4.564 0 8.257 1.624a18 18 0 0 1 6.336 4.624q2.645 3 4.058 7.112 1.415 4.112 1.415 9.087v2.352h-36.198v-6.512h31.695l-3.783 1.987q0-4.013-1.438-6.955t-4.06-4.547-6.201-1.606q-3.54 0-6.148 1.606-2.607 1.604-4.046 4.547t-1.439 6.955v3.699q0 4.062 1.416 7.172t4.13 4.856q2.714 1.747 6.582 1.747 2.818 0 4.972-.865 2.156-.865 3.582-2.416a9.1 9.1 0 0 0 2.041-3.592h8.265q-.807 4.16-3.465 7.321t-6.658 4.943q-3.999 1.783-8.854 1.783M197.9 430.628l17.773-24.613-.106 5.323-16.687-23.678h9.794l5.137 7.643a417 417 0 0 1 3.316 5.12 2748 2748 0 0 1 3.23 5.088H216.8a952 952 0 0 0 3.296-5.088 437 437 0 0 1 3.346-5.12l5.219-7.643h9.65l-16.845 23.678.074-5.357 17.488 24.647h-9.782l-5.986-8.711a532 532 0 0 1-3.252-4.941 1390 1390 0 0 1-3.175-4.908h3.407a681 681 0 0 1-6.523 9.849l-6.075 8.711zM1125.67 430.628V387.66h8.351v9.082h-.81q1.217-3.28 3.275-5.486 2.059-2.206 4.733-3.322a14.5 14.5 0 0 1 5.633-1.118q5.001 0 8.558 2.858t4.381 7.068h-1.372a13.5 13.5 0 0 1 2.915-5.097q2.022-2.24 4.961-3.534 2.938-1.295 6.516-1.295 4.004 0 7.259 1.739 3.255 1.738 5.169 5.189t1.913 8.624v28.26h-8.601v-27.527q0-4.616-2.568-6.683t-6.09-2.068q-2.841 0-4.918 1.208a8.3 8.3 0 0 0-3.206 3.328q-1.13 2.12-1.13 4.882v26.86h-8.455V402.5q0-3.697-2.387-5.923-2.385-2.226-6.059-2.227a9.63 9.63 0 0 0-4.658 1.174q-2.164 1.174-3.487 3.479-1.321 2.307-1.321 5.699v25.926zM1213.35 431.471q-5.582 0-9.786-2.82-4.204-2.822-6.52-7.854t-2.316-11.668q0-6.625 2.327-11.654 2.327-5.028 6.528-7.844 4.2-2.815 9.737-2.815 2.808 0 5.289.779a14.3 14.3 0 0 1 4.494 2.34q2.013 1.561 3.389 3.941h.074V370h8.602v60.628h-8.439v-6.539h-.074q-1.444 2.488-3.49 4.131a14.2 14.2 0 0 1-4.523 2.447q-2.477.804-5.292.804m1.739-7.405q3.672 0 6.383-1.85t4.187-5.216q1.477-3.365 1.477-7.871 0-4.539-1.477-7.896t-4.187-5.209-6.383-1.851q-3.432 0-6.066 1.718t-4.116 5.042q-1.48 3.324-1.481 8.196 0 4.84 1.481 8.171 1.482 3.332 4.116 5.049t6.066 1.717M2099.13 387.66v7.097h-25.032v-7.097zm-17.338 42.968v-49.93q0-3.4 1.442-5.784t4.172-3.649 6.577-1.265h5.147v7.098h-3.808q-2.667 0-3.798 1.143-1.13 1.144-1.13 3.838v48.549zM2119.64 431.627q-4.921 0-8.866-1.575t-6.363-4.71-2.732-7.784h8.491q.352 3.48 2.736 5.365 2.384 1.884 6.556 1.884 4.102 0 6.459-1.67 2.357-1.671 2.357-4.233 0-2.192-1.68-3.518-1.681-1.326-4.49-1.933l-7.122-1.569q-6.068-1.359-9.2-4.447-3.13-3.089-3.131-7.863 0-3.801 2.055-6.702 2.054-2.902 5.764-4.534 3.71-1.633 8.637-1.633 4.842 0 8.601 1.718 3.757 1.718 5.938 4.862 2.18 3.143 2.301 7.489h-8.204q-.041-3.14-2.366-5.202t-6.153-2.062q-3.66 0-5.823 1.711-2.162 1.71-2.162 4.192 0 2.186 1.655 3.531 1.654 1.346 4.534 2.006l7.328 1.613q6.294 1.406 9.246 4.301 2.95 2.894 2.951 7.569 0 4.09-2.244 7.053-2.244 2.961-6.162 4.551t-8.911 1.59M2165.26 387.66v7.097h-24.915v-7.097zm-17.339-11.719h8.602v43.318q0 2.38.987 3.326.986.945 3.557.945h4.193v7.098h-5.415q-6.061 0-8.993-2.538-2.931-2.538-2.931-7.718zM2185.58 431.302q-4.28 0-7.642-1.451-3.363-1.45-5.318-4.341-1.956-2.891-1.955-7.164 0-3.688 1.411-6.04a10.4 10.4 0 0 1 3.804-3.726q2.392-1.374 5.453-2.091a56 56 0 0 1 6.319-1.095q4.051-.512 6.4-.822t3.35-.976 1.001-2.212v-.364q0-2.103-1.028-3.712-1.027-1.61-2.973-2.53-1.946-.921-4.686-.921-2.721 0-4.815.898-2.094.899-3.329 2.457a6.44 6.44 0 0 0-1.398 3.555h-8.453q.233-4.116 2.508-7.247 2.274-3.13 6.26-4.917t9.344-1.787q3.963 0 7.134 1.014 3.171 1.013 5.387 2.9a12.5 12.5 0 0 1 3.386 4.531q1.168 2.644 1.168 5.906v29.461h-8.462v-6.089h-.162q-.89 1.73-2.455 3.282-1.565 1.551-4.056 2.516t-6.193.965m1.753-6.896q3.785 0 6.251-1.372 2.465-1.372 3.656-3.609 1.192-2.235 1.192-4.882v-5.02q-.444.337-1.449.64-1.005.304-2.428.587t-3.078.55q-1.653.267-3.359.503a20.5 20.5 0 0 0-4.37 1.072q-2.035.753-3.287 2.091t-1.251 3.539q0 1.832.994 3.159.993 1.328 2.819 2.035t4.31.707M2216.57 430.628V387.66h8.248v6.945h.148q1.179-3.52 3.729-5.5t6.65-1.98q.98 0 1.802.067t1.332.134v8.016q-.486-.1-1.756-.251-1.27-.15-2.783-.15-2.39 0-4.394 1.106t-3.19 3.385q-1.184 2.28-1.184 5.802v25.394zM314.016 431.625l-5.246-5.246 9.347-9.322q1.522-1.487 3.111-3.025a243 243 0 0 1 3.243-3.079q1.654-1.541 3.255-3.029a262 262 0 0 1 3.143-2.875l.48 2.441a415 415 0 0 1-3.508.183q-1.809.087-3.648.144t-3.658.057h-39.873v-7.551h39.873q1.82 0 3.658.057 1.839.057 3.648.139t3.508.188l-.48 2.463a3258 3258 0 0 0-4.209-3.88 337 337 0 0 1-4.346-4.073 402 402 0 0 1-4.197-4.063l-9.354-9.321 5.253-5.261 27.519 27.526zM1314.02 431.625l-5.246-5.246 9.347-9.322q1.523-1.487 3.111-3.025a243 243 0 0 1 3.243-3.079q1.655-1.541 3.255-3.029a262 262 0 0 1 3.143-2.875l.48 2.441a415 415 0 0 1-3.508.183q-1.809.087-3.648.144t-3.658.057h-39.873v-7.551h39.873q1.82 0 3.658.057 1.839.057 3.648.139t3.508.188l-.48 2.463a3258 3258 0 0 0-4.209-3.88 337 337 0 0 1-4.346-4.073 402 402 0 0 1-4.197-4.063l-9.354-9.321 5.253-5.261 27.519 27.526zM2314.02 431.625l-5.246-5.246 9.347-9.322q1.523-1.487 3.111-3.025a243 243 0 0 1 3.243-3.079q1.655-1.541 3.255-3.029a262 262 0 0 1 3.143-2.875l.48 2.441a415 415 0 0 1-3.508.183q-1.809.087-3.648.144t-3.658.057h-39.873v-7.551h39.873q1.82 0 3.658.057 1.839.057 3.648.139t3.508.188l-.48 2.463a3258 3258 0 0 0-4.209-3.88 337 337 0 0 1-4.346-4.073 402 402 0 0 1-4.197-4.063l-9.354-9.321 5.253-5.261 27.519 27.526zM381.961 377.917V370h47.629v7.917h-19.255v52.711h-9.052v-52.711zM448.238 431.605q-6.373 0-10.956-2.885-4.584-2.885-7.043-7.955t-2.459-11.554q0-6.559 2.555-11.642t7.071-7.984q4.515-2.902 10.373-2.902 4.564 0 8.257 1.624a18 18 0 0 1 6.336 4.624q2.645 3 4.058 7.112 1.415 4.112 1.415 9.087v2.352h-36.198v-6.512h31.695l-3.783 1.987q0-4.013-1.438-6.955t-4.06-4.547-6.201-1.606q-3.54 0-6.148 1.606-2.607 1.604-4.046 4.547t-1.439 6.955v3.699q0 4.062 1.416 7.172t4.13 4.856q2.714 1.747 6.582 1.747 2.818 0 4.972-.865 2.156-.865 3.582-2.416a9.1 9.1 0 0 0 2.041-3.592h8.265q-.807 4.16-3.465 7.321t-6.658 4.943q-3.999 1.783-8.854 1.783M468.896 430.628l24.054-34.333v6.701L470.403 370h10.375l8.212 12.164a292 292 0 0 1 2.612 3.94l2.564 3.939a320 320 0 0 1 2.519 3.936h-1.861a2198 2198 0 0 0 2.568-3.936 311 311 0 0 1 2.604-3.939q1.324-1.97 2.653-3.94l8.36-12.164h10.121l-22.416 32.587v-6.554l23.741 34.595h-10.444l-10.029-14.688a588 588 0 0 0-2.416-3.592 261 261 0 0 1-2.38-3.573 818 818 0 0 0-2.35-3.572h1.731a409 409 0 0 1-2.376 3.572q-1.207 1.793-2.417 3.573a484 484 0 0 1-2.468 3.592l-10.162 14.688zM1385.52 430.628V370h12.731l13.593 35.511q.559 1.507 1.327 3.709a529 529 0 0 1 1.583 4.599q.813 2.398 1.531 4.549.717 2.152 1.146 3.559h-2.152q.428-1.407 1.13-3.559.7-2.15 1.51-4.549.81-2.397 1.575-4.599l1.291-3.709L1434.163 370h12.771v60.628h-8.894v-33.046q0-1.976.035-4.404t.108-5.067.14-5.328q.068-2.69.101-5.189h1.179q-.987 2.966-1.972 5.882-.983 2.917-1.88 5.551a603 603 0 0 1-1.659 4.813 198 198 0 0 1-1.346 3.742l-12.812 33.046h-7.399l-12.9-33.046q-.585-1.564-1.37-3.742a440 440 0 0 1-1.703-4.813q-.918-2.635-1.938-5.551a899 899 0 0 0-2.083-5.882h1.522c.045 1.666.195 8.758.243 10.517q.071 2.639.106 5.067t.035 4.404v33.046zM1470.41 431.302q-4.28 0-7.642-1.451-3.362-1.45-5.318-4.341t-1.955-7.164q0-3.688 1.412-6.04a10.4 10.4 0 0 1 3.803-3.726q2.392-1.374 5.453-2.091a56 56 0 0 1 6.319-1.095q4.051-.512 6.4-.822t3.35-.976 1.001-2.212v-.364q0-2.103-1.028-3.712-1.027-1.61-2.973-2.53-1.946-.921-4.686-.921-2.721 0-4.815.898-2.094.899-3.329 2.457a6.45 6.45 0 0 0-1.398 3.555h-8.453q.233-4.116 2.508-7.247 2.274-3.13 6.261-4.917t9.343-1.787q3.963 0 7.134 1.014 3.171 1.013 5.387 2.9a12.5 12.5 0 0 1 3.386 4.531q1.168 2.644 1.168 5.906v29.461h-8.461v-6.089h-.163q-.89 1.73-2.455 3.282-1.564 1.551-4.056 2.516t-6.193.965m1.753-6.896q3.785 0 6.251-1.372 2.465-1.372 3.656-3.609 1.192-2.235 1.192-4.882v-5.02q-.444.337-1.449.64-1.005.304-2.428.587t-3.078.55q-1.653.267-3.359.503a20.5 20.5 0 0 0-4.37 1.072q-2.034.753-3.286 2.091t-1.252 3.539q0 1.832.994 3.159.993 1.328 2.819 2.035t4.31.707M1501.41 430.628V387.66h8.248v6.945h.148q1.179-3.52 3.729-5.5t6.65-1.98q.98 0 1.802.067t1.332.134v8.016q-.486-.1-1.756-.251-1.27-.15-2.783-.15-2.39 0-4.394 1.106t-3.189 3.385-1.185 5.802v25.394zM1538.9 416.192v-10.164h.77l18.346-18.368h10.65l-20.431 20.769h-1.354zm-7.928 14.436V370h8.602v60.628zm28.385 0-16.193-20.286 5.894-5.988 20.831 26.274zM1589.1 431.471q-5.582 0-9.786-2.82-4.204-2.822-6.52-7.854t-2.316-11.668q0-6.625 2.327-11.654 2.327-5.028 6.527-7.844 4.202-2.815 9.738-2.815 2.808 0 5.289.779a14.3 14.3 0 0 1 4.494 2.34q2.013 1.561 3.389 3.941h.074V370h8.602v60.628h-8.439v-6.539h-.074q-1.444 2.488-3.49 4.131a14.2 14.2 0 0 1-4.523 2.447q-2.478.804-5.292.804m1.739-7.405q3.673 0 6.382-1.85 2.71-1.851 4.188-5.216t1.477-7.871q0-4.539-1.477-7.896t-4.188-5.209-6.382-1.851q-3.432 0-6.066 1.718t-4.116 5.042q-1.48 3.324-1.481 8.196 0 4.84 1.481 8.171 1.482 3.332 4.116 5.049t6.066 1.717M1639.06 431.605q-6.123 0-10.763-2.847t-7.222-7.892-2.583-11.655q0-6.643 2.583-11.719t7.222-7.942q4.64-2.867 10.763-2.867 6.165 0 10.783 2.867 4.619 2.867 7.202 7.942t2.583 11.719q0 6.609-2.583 11.655t-7.202 7.892-10.783 2.847m0-7.424q3.688 0 6.343-1.832t4.091-5.211q1.436-3.378 1.436-7.927 0-4.625-1.436-7.998-1.437-3.375-4.091-5.241t-6.343-1.866q-3.648 0-6.322 1.85-2.676 1.85-4.112 5.24t-1.436 8.015q0 4.583 1.436 7.944 1.437 3.361 4.095 5.194t6.339 1.832M1675.15 430.628l-13.318-42.968h9.016l4.921 17.591q1.232 4.441 2.366 9.127a830 830 0 0 0 2.285 9.212h-1.189q1.18-4.526 2.363-9.212 1.185-4.686 2.438-9.127l5.006-17.591h8.154l4.94 17.591a307 307 0 0 1 2.42 9.127 888 888 0 0 0 2.347 9.212h-1.274a769 769 0 0 0 2.333-9.209 377 377 0 0 1 2.374-9.13l4.992-17.591h9.074l-13.317 42.968h-8.957l-5.436-18.711q-.777-2.79-1.535-5.666a676 676 0 0 1-1.493-5.782 279 279 0 0 0-1.513-5.727h1.97a517 517 0 0 0-1.527 5.727q-.757 2.906-1.51 5.782a203 203 0 0 1-1.571 5.666l-5.536 18.711zM1738.8 405.906v24.722h-8.602V387.66h8.432v10.672h-1.982q2.094-5.781 5.861-8.648t9.11-2.868q4.434 0 7.949 1.922 3.516 1.922 5.56 5.705 2.045 3.785 2.045 9.419v26.766h-8.602v-25.706q0-5.157-2.464-7.791t-6.954-2.634q-2.914 0-5.258 1.181-2.343 1.18-3.719 3.696t-1.376 6.532M2385.52 430.628V370h39.46v7.917h-30.407V396.1h28.112v7.813h-28.112v26.715zM2444.21 404.098l.576-12.552-10.562 6.823-3.199-5.55 11.189-5.729-11.189-5.729 3.199-5.632 10.562 6.823-.576-12.552h6.37l-.561 12.552 10.561-6.823 3.186 5.632-11.176 5.729 11.176 5.729-3.186 5.55-10.561-6.823.561 12.552zM129.369 540.628q-6.41 0-9.182-2.379t-2.772-7.95V480h8.603v49.421q0 2.484.856 3.333t3.289.849h1.69v7.025zM137.749 540.628V497.66h8.586v42.968zm-.203-51.758V480h8.992v8.87zM171.937 541.627q-4.92 0-8.865-1.575t-6.364-4.71q-2.417-3.134-2.732-7.784h8.492q.351 3.48 2.735 5.365 2.384 1.884 6.557 1.884 4.101 0 6.459-1.67 2.356-1.671 2.356-4.233 0-2.192-1.68-3.518t-4.489-1.933l-7.122-1.569q-6.07-1.359-9.2-4.447-3.131-3.088-3.131-7.863 0-3.801 2.054-6.702 2.054-2.902 5.764-4.534 3.71-1.633 8.638-1.633 4.842 0 8.6 1.718t5.938 4.862q2.18 3.143 2.302 7.489h-8.205q-.041-3.14-2.365-5.202t-6.153-2.062q-3.662 0-5.823 1.711-2.163 1.71-2.163 4.192 0 2.185 1.655 3.531t4.535 2.006l7.327 1.613q6.296 1.406 9.246 4.301 2.952 2.894 2.952 7.569 0 4.09-2.245 7.053-2.244 2.961-6.161 4.551-3.918 1.59-8.912 1.59M196.821 557.637V497.66h8.44v6.172h.103q1.361-2.35 3.408-3.904a14.6 14.6 0 0 1 4.588-2.333 18 18 0 0 1 5.309-.779q5.578 0 9.758 2.815t6.507 7.844 2.327 11.654q0 6.636-2.316 11.668-2.316 5.033-6.5 7.854-4.183 2.82-9.806 2.82-2.78 0-5.227-.804a13.9 13.9 0 0 1-4.447-2.432q-2.003-1.628-3.446-4.088h-.096v23.49zm20.079-23.571q3.472 0 6.087-1.717 2.613-1.717 4.095-5.049 1.48-3.332 1.481-8.171 0-4.872-1.481-8.196-1.482-3.325-4.095-5.042-2.614-1.718-6.087-1.718-3.665 0-6.379 1.851t-4.19 5.209q-1.477 3.357-1.477 7.896 0 4.505 1.477 7.871 1.476 3.365 4.19 5.216t6.379 1.85M1101.88 541.302q-4.28 0-7.642-1.451-3.363-1.45-5.318-4.341-1.956-2.891-1.956-7.164 0-3.688 1.412-6.04a10.4 10.4 0 0 1 3.803-3.726q2.393-1.374 5.453-2.091a56 56 0 0 1 6.32-1.095q4.05-.512 6.4-.822 2.349-.31 3.349-.976t1.001-2.212v-.364q0-2.103-1.027-3.712-1.027-1.61-2.974-2.53-1.946-.921-4.686-.921-2.721 0-4.815.898-2.093.899-3.329 2.457a6.44 6.44 0 0 0-1.397 3.555h-8.453q.233-4.116 2.507-7.247 2.274-3.13 6.261-4.917t9.343-1.787q3.965 0 7.134 1.014 3.171 1.014 5.388 2.9a12.5 12.5 0 0 1 3.385 4.531q1.169 2.644 1.169 5.906v29.461h-8.462v-6.089h-.163q-.89 1.73-2.454 3.282-1.564 1.551-4.056 2.516t-6.193.965m1.752-6.896q3.786 0 6.251-1.372t3.657-3.609q1.191-2.236 1.191-4.882v-5.02q-.444.337-1.448.64-1.005.304-2.429.587t-3.077.55-3.36.503a20.5 20.5 0 0 0-4.37 1.072q-2.034.753-3.286 2.091t-1.252 3.539q0 1.832.994 3.159.995 1.328 2.819 2.035 1.826.707 4.31.707M1148.8 541.627q-4.92 0-8.865-1.575t-6.364-4.71q-2.418-3.134-2.732-7.784h8.492q.351 3.48 2.735 5.365 2.384 1.884 6.557 1.884 4.101 0 6.459-1.67 2.356-1.671 2.356-4.233 0-2.192-1.68-3.518t-4.489-1.933l-7.122-1.569q-6.07-1.359-9.2-4.447-3.131-3.088-3.131-7.863 0-3.801 2.054-6.702 2.054-2.902 5.764-4.534 3.71-1.633 8.638-1.633 4.842 0 8.6 1.718t5.938 4.862q2.18 3.143 2.302 7.489h-8.205q-.04-3.14-2.366-5.202-2.324-2.062-6.152-2.062-3.661 0-5.823 1.711-2.163 1.71-2.163 4.192 0 2.185 1.655 3.531t4.535 2.006l7.327 1.613q6.295 1.406 9.246 4.301 2.952 2.894 2.952 7.569 0 4.09-2.245 7.053-2.244 2.961-6.161 4.551-3.918 1.59-8.912 1.59M1173.68 540.628V497.66h8.351v9.082h-.81q1.216-3.28 3.276-5.486 2.058-2.206 4.733-3.322a14.5 14.5 0 0 1 5.633-1.118q5.001 0 8.558 2.858 3.555 2.858 4.381 7.068h-1.373a13.55 13.55 0 0 1 2.915-5.097q2.024-2.24 4.962-3.534 2.938-1.295 6.516-1.295 4.003 0 7.258 1.739 3.255 1.738 5.169 5.189t1.914 8.624v28.26h-8.602v-27.527q0-4.616-2.567-6.683t-6.09-2.068q-2.842 0-4.918 1.208a8.3 8.3 0 0 0-3.206 3.328q-1.13 2.12-1.13 4.882v26.86h-8.456V512.5q0-3.697-2.386-5.923t-6.059-2.227a9.6 9.6 0 0 0-4.658 1.174q-2.165 1.174-3.487 3.479t-1.322 5.699v25.926zM2195.65 540.628q-6.41 0-9.181-2.379-2.772-2.378-2.772-7.95V480h8.602v49.421q0 2.484.856 3.333.857.849 3.289.849h1.691v7.025zM2219.95 541.627q-4.92 0-8.866-1.575t-6.363-4.71q-2.418-3.134-2.732-7.784h8.491q.352 3.48 2.736 5.365 2.384 1.884 6.556 1.884 4.102 0 6.459-1.67 2.357-1.671 2.357-4.233 0-2.192-1.68-3.518-1.681-1.326-4.49-1.933l-7.122-1.569q-6.068-1.359-9.2-4.447-3.13-3.088-3.131-7.863 0-3.801 2.055-6.702 2.054-2.902 5.764-4.534 3.71-1.633 8.637-1.633 4.842 0 8.601 1.718 3.757 1.718 5.938 4.862 2.18 3.143 2.301 7.489h-8.204q-.041-3.14-2.366-5.202t-6.153-2.062q-3.66 0-5.823 1.711-2.162 1.71-2.162 4.192 0 2.185 1.655 3.531 1.654 1.346 4.534 2.006l7.328 1.613q6.294 1.406 9.246 4.301 2.95 2.894 2.951 7.569 0 4.09-2.244 7.053-2.244 2.961-6.162 4.551t-8.911 1.59M314.016 541.625l-5.246-5.246 9.347-9.322q1.522-1.487 3.111-3.025a243 243 0 0 1 3.243-3.079q1.654-1.542 3.255-3.029a262 262 0 0 1 3.143-2.875l.48 2.441a415 415 0 0 1-3.508.183q-1.809.087-3.648.144t-3.658.057h-39.873v-7.551h39.873q1.82 0 3.658.057 1.839.057 3.648.139t3.508.188l-.48 2.463a3258 3258 0 0 0-4.209-3.88 337 337 0 0 1-4.346-4.073 402 402 0 0 1-4.197-4.063l-9.354-9.321 5.253-5.261 27.519 27.526zM1314.02 541.625l-5.246-5.246 9.347-9.322q1.523-1.487 3.111-3.025a243 243 0 0 1 3.243-3.079q1.655-1.542 3.255-3.029a262 262 0 0 1 3.143-2.875l.48 2.441a415 415 0 0 1-3.508.183q-1.809.087-3.648.144t-3.658.057h-39.873v-7.551h39.873q1.82 0 3.658.057 1.839.057 3.648.139t3.508.188l-.48 2.463a3258 3258 0 0 0-4.209-3.88 337 337 0 0 1-4.346-4.073 402 402 0 0 1-4.197-4.063l-9.354-9.321 5.253-5.261 27.519 27.526zM2314.02 541.625l-5.246-5.246 9.347-9.322q1.523-1.487 3.111-3.025a243 243 0 0 1 3.243-3.079q1.655-1.542 3.255-3.029a262 262 0 0 1 3.143-2.875l.48 2.441a415 415 0 0 1-3.508.183q-1.809.087-3.648.144t-3.658.057h-39.873v-7.551h39.873q1.82 0 3.658.057 1.839.057 3.648.139t3.508.188l-.48 2.463a3258 3258 0 0 0-4.209-3.88 337 337 0 0 1-4.346-4.073 402 402 0 0 1-4.197-4.063l-9.354-9.321 5.253-5.261 27.519 27.526zM411.588 541.605q-8.36 0-14.737-3.939-6.376-3.937-9.966-10.983-3.59-7.045-3.589-16.328 0-9.364 3.572-16.413t9.966-10.984 14.754-3.935q4.951 0 9.25 1.476t7.681 4.258q3.382 2.783 5.598 6.677t3.026 8.765h-9.208q-.667-3.092-2.133-5.501-1.467-2.41-3.584-4.073a15 15 0 0 0-4.796-2.512q-2.677-.847-5.776-.847-5.978 0-10.291 2.904-4.312 2.904-6.645 8.095t-2.332 12.09q0 6.858 2.329 12.029 2.328 5.17 6.644 8.075t10.295 2.904q3.098 0 5.756-.844a15.2 15.2 0 0 0 4.776-2.495q2.117-1.65 3.6-4.04t2.19-5.473h9.175q-.785 4.837-3.013 8.728-2.23 3.89-5.615 6.656t-7.681 4.238q-4.294 1.472-9.246 1.472M463.598 541.605q-6.125 0-10.763-2.847-4.64-2.847-7.222-7.892-2.583-5.046-2.584-11.655 0-6.643 2.584-11.719t7.222-7.942 10.763-2.867q6.164 0 10.783 2.867t7.202 7.942 2.583 11.719q0 6.609-2.583 11.655t-7.202 7.892-10.783 2.847m0-7.424q3.688 0 6.343-1.832t4.091-5.211 1.436-7.927q0-4.625-1.436-7.998-1.437-3.375-4.091-5.241t-6.343-1.866q-3.647 0-6.323 1.85-2.675 1.85-4.111 5.24-1.437 3.391-1.436 8.015 0 4.582 1.436 7.944t4.095 5.194q2.658 1.832 6.339 1.832M491.739 540.628V497.66h8.351v9.082h-.81q1.216-3.28 3.276-5.486t4.732-3.322a14.5 14.5 0 0 1 5.633-1.118q5.002 0 8.558 2.858t4.382 7.068h-1.373a13.5 13.5 0 0 1 2.915-5.097q2.024-2.24 4.962-3.534 2.939-1.295 6.515-1.295 4.004 0 7.259 1.739 3.255 1.738 5.169 5.189t1.914 8.624v28.26h-8.602v-27.527q0-4.616-2.567-6.683t-6.09-2.068q-2.842 0-4.918 1.208a8.3 8.3 0 0 0-3.207 3.328q-1.13 2.12-1.13 4.882v26.86h-8.455V512.5q0-3.697-2.386-5.923t-6.059-2.227a9.6 9.6 0 0 0-4.658 1.174q-2.166 1.174-3.487 3.479t-1.322 5.699v25.926zM562.89 540.628V497.66h8.351v9.082h-.81q1.217-3.28 3.275-5.486 2.059-2.206 4.733-3.322a14.5 14.5 0 0 1 5.633-1.118q5.001 0 8.558 2.858t4.381 7.068h-1.372a13.5 13.5 0 0 1 2.915-5.097q2.023-2.24 4.961-3.534 2.94-1.295 6.516-1.295 4.004 0 7.259 1.739 3.255 1.738 5.169 5.189t1.913 8.624v28.26h-8.601v-27.527q0-4.616-2.567-6.683t-6.091-2.068q-2.841 0-4.918 1.208a8.3 8.3 0 0 0-3.206 3.328q-1.13 2.12-1.13 4.882v26.86h-8.455V512.5q0-3.697-2.386-5.923t-6.059-2.227a9.63 9.63 0 0 0-4.659 1.174q-2.165 1.174-3.486 3.479t-1.322 5.699v25.926zM652.514 541.605q-6.125 0-10.763-2.847-4.64-2.847-7.222-7.892-2.584-5.046-2.584-11.655 0-6.643 2.584-11.719t7.222-7.942 10.763-2.867q6.164 0 10.783 2.867t7.202 7.942 2.583 11.719q0 6.609-2.583 11.655t-7.202 7.892-10.783 2.847m0-7.424q3.688 0 6.342-1.832 2.655-1.833 4.091-5.211t1.437-7.927q0-4.625-1.437-7.998-1.436-3.375-4.091-5.241-2.654-1.866-6.342-1.866-3.648 0-6.323 1.85t-4.111 5.24q-1.437 3.391-1.437 8.015 0 4.582 1.437 7.944 1.436 3.361 4.094 5.194 2.66 1.832 6.34 1.832M689.257 515.906v24.722h-8.602V497.66h8.432v10.672h-1.983q2.094-5.781 5.862-8.648 3.767-2.868 9.11-2.868 4.434 0 7.949 1.922t5.56 5.705q2.044 3.785 2.044 9.419v26.766h-8.602v-25.706q0-5.157-2.463-7.791t-6.955-2.634q-2.913 0-5.257 1.181-2.344 1.18-3.72 3.696-1.375 2.516-1.375 6.532M747.825 540.628V480h9.052v52.711h28.659v7.917zM792.339 540.628V497.66h8.586v42.968zm-.203-51.758V480h8.993v8.87zM826.527 541.627q-4.92 0-8.865-1.575t-6.363-4.71-2.732-7.784h8.491q.351 3.48 2.735 5.365 2.385 1.884 6.557 1.884 4.103 0 6.459-1.67 2.357-1.671 2.357-4.233 0-2.192-1.681-3.518-1.68-1.326-4.489-1.933l-7.122-1.569q-6.07-1.359-9.2-4.447t-3.131-7.863q0-3.801 2.054-6.702 2.055-2.902 5.765-4.534 3.71-1.633 8.637-1.633 4.842 0 8.6 1.718t5.938 4.862q2.18 3.143 2.302 7.489h-8.205q-.04-3.14-2.365-5.202t-6.153-2.062q-3.661 0-5.823 1.711-2.163 1.71-2.162 4.192 0 2.185 1.654 3.531 1.655 1.346 4.535 2.006l7.327 1.613q6.295 1.406 9.247 4.301 2.95 2.894 2.951 7.569 0 4.09-2.244 7.053-2.245 2.961-6.162 4.551-3.918 1.59-8.912 1.59M851.412 557.637V497.66h8.439v6.172h.103q1.362-2.35 3.408-3.904a14.6 14.6 0 0 1 4.588-2.333 18 18 0 0 1 5.309-.779q5.578 0 9.759 2.815 4.18 2.816 6.506 7.844 2.328 5.029 2.327 11.654 0 6.636-2.316 11.668-2.316 5.033-6.499 7.854-4.185 2.82-9.806 2.82-2.782 0-5.227-.804a13.9 13.9 0 0 1-4.448-2.432q-2.002-1.628-3.445-4.088h-.096v23.49zm20.079-23.571q3.471 0 6.086-1.717 2.614-1.717 4.095-5.049t1.481-8.171q0-4.872-1.481-8.196-1.48-3.325-4.095-5.042-2.615-1.718-6.086-1.718-3.666 0-6.38 1.851t-4.19 5.209-1.477 7.896q0 4.505 1.477 7.871 1.477 3.365 4.19 5.216t6.38 1.85M1380.67 540.628 1402.683 480h10.908l21.849 60.628h-9.833l-11.667-34.196q-1.43-4.346-3.088-9.511a849 849 0 0 1-3.978-12.82h2.555a876 876 0 0 1-4 12.82 646 646 0 0 1-3.143 9.511l-12.012 34.196zm12.207-15.741v-7.682h30.363v7.682zM1456.87 541.627q-4.92 0-8.865-1.575t-6.363-4.71-2.733-7.784h8.492q.351 3.48 2.735 5.365 2.384 1.884 6.557 1.884 4.101 0 6.459-1.67 2.356-1.671 2.356-4.233 0-2.192-1.68-3.518t-4.489-1.933l-7.122-1.569q-6.07-1.359-9.2-4.447-3.132-3.088-3.131-7.863 0-3.801 2.054-6.702 2.054-2.902 5.764-4.534 3.71-1.633 8.638-1.633 4.842 0 8.6 1.718t5.938 4.862q2.18 3.143 2.302 7.489h-8.205q-.041-3.14-2.365-5.202t-6.153-2.062q-3.662 0-5.823 1.711-2.163 1.71-2.163 4.192 0 2.185 1.655 3.531t4.535 2.006l7.327 1.613q6.295 1.406 9.246 4.301 2.952 2.894 2.952 7.569 0 4.09-2.245 7.053-2.244 2.961-6.161 4.551-3.918 1.59-8.912 1.59M1497.68 541.627q-4.921 0-8.866-1.575t-6.363-4.71-2.732-7.784h8.491q.352 3.48 2.736 5.365 2.383 1.884 6.556 1.884 4.102 0 6.459-1.67 2.357-1.671 2.357-4.233 0-2.192-1.68-3.518-1.681-1.326-4.49-1.933l-7.122-1.569q-6.07-1.359-9.2-4.447t-3.131-7.863q0-3.801 2.055-6.702 2.053-2.902 5.764-4.534 3.71-1.633 8.637-1.633 4.842 0 8.601 1.718 3.758 1.718 5.937 4.862 2.18 3.143 2.302 7.489h-8.205q-.04-3.14-2.365-5.202t-6.153-2.062q-3.66 0-5.823 1.711-2.162 1.71-2.162 4.192 0 2.185 1.654 3.531 1.656 1.346 4.535 2.006l7.328 1.613q6.294 1.406 9.246 4.301 2.95 2.894 2.951 7.569 0 4.09-2.244 7.053-2.244 2.961-6.162 4.551t-8.911 1.59M1540.92 541.605q-6.372 0-10.956-2.885t-7.043-7.955-2.459-11.554q0-6.559 2.555-11.642t7.071-7.984q4.515-2.902 10.373-2.902 4.564 0 8.257 1.624a18 18 0 0 1 6.336 4.624q2.645 3 4.059 7.112 1.414 4.111 1.414 9.087v2.352h-36.198v-6.512h31.695l-3.783 1.987q0-4.013-1.438-6.955t-4.06-4.547-6.201-1.606q-3.54 0-6.148 1.606-2.607 1.604-4.046 4.547t-1.439 6.955v3.699q0 4.062 1.416 7.172t4.13 4.856 6.583 1.747q2.817 0 4.971-.865 2.156-.865 3.582-2.416a9.1 9.1 0 0 0 2.041-3.592h8.266q-.807 4.16-3.466 7.321-2.658 3.16-6.657 4.943t-8.855 1.783M1567.94 540.628V497.66h8.351v9.082h-.81q1.217-3.28 3.275-5.486 2.059-2.206 4.733-3.322a14.5 14.5 0 0 1 5.633-1.118q5.001 0 8.558 2.858t4.381 7.068h-1.372a13.5 13.5 0 0 1 2.915-5.097q2.023-2.24 4.961-3.534 2.94-1.295 6.516-1.295 4.004 0 7.259 1.739 3.255 1.738 5.169 5.189t1.913 8.624v28.26h-8.601v-27.527q0-4.616-2.567-6.683t-6.091-2.068q-2.842 0-4.918 1.208a8.3 8.3 0 0 0-3.206 3.328q-1.13 2.12-1.13 4.882v26.86h-8.455V512.5q0-3.697-2.386-5.923t-6.059-2.227a9.63 9.63 0 0 0-4.659 1.174q-2.165 1.174-3.486 3.479t-1.322 5.699v25.926zM1660.91 541.471q-2.78 0-5.275-.804a14.1 14.1 0 0 1-4.54-2.447q-2.046-1.642-3.49-4.131h-.073v6.539h-8.44V480h8.602v23.876h.074q1.383-2.38 3.393-3.941a14.2 14.2 0 0 1 4.511-2.34 17.6 17.6 0 0 1 5.268-.779q5.578 0 9.758 2.815t6.507 7.844 2.327 11.654q0 6.636-2.316 11.668-2.316 5.033-6.5 7.854-4.183 2.82-9.806 2.82m-1.738-7.405q3.471 0 6.086-1.717 2.613-1.718 4.095-5.049 1.48-3.332 1.481-8.171 0-4.872-1.481-8.196-1.482-3.325-4.095-5.042-2.615-1.718-6.086-1.718-3.666 0-6.38 1.851t-4.19 5.209q-1.477 3.357-1.477 7.896 0 4.505 1.477 7.871 1.476 3.365 4.19 5.216t6.38 1.85M1699.06 540.628q-6.41 0-9.181-2.379-2.772-2.378-2.772-7.95V480h8.602v49.421q0 2.484.856 3.333.857.849 3.289.849h1.691v7.025zM1706.37 557.637v-7.232h4.642q1.373 0 2.366-.516t1.775-1.608q.781-1.092 1.429-2.831l1.971-5.122-16.613-42.668h9.187l8.582 23.567a276 276 0 0 1 2.311 6.65q1.11 3.332 2.149 6.657h-2.344a272 272 0 0 1 2.147-6.661 438 438 0 0 1 2.299-6.646l8.485-23.567h9.056l-19.516 50.49q-1.212 3.123-3.006 5.232t-4.16 3.182-5.297 1.073zM2385.52 540.628V480h9.053v52.711h28.659v7.917zM2430.04 540.628V497.66h8.586v42.968zm-.203-51.758V480h8.992v8.87zM2460.82 540.628l-16.382-42.968h9.187l8.552 23.567a223 223 0 0 1 2.271 6.654 720 720 0 0 1 2.115 6.653h-2.063q1.064-3.326 2.117-6.653a254 254 0 0 1 2.206-6.654l8.431-23.567h9.056l-16.382 42.968zM2508.85 541.605q-6.372 0-10.956-2.885t-7.043-7.955-2.459-11.554q0-6.559 2.556-11.642 2.554-5.082 7.071-7.984 4.515-2.902 10.372-2.902 4.564 0 8.257 1.624a18 18 0 0 1 6.337 4.624q2.643 3 4.058 7.112 1.414 4.111 1.414 9.087v2.352h-36.197v-6.512h31.695l-3.783 1.987q0-4.013-1.439-6.955-1.438-2.942-4.06-4.547-2.62-1.606-6.201-1.606-3.54 0-6.147 1.606-2.608 1.604-4.047 4.547t-1.438 6.955v3.699q0 4.062 1.416 7.172t4.129 4.856q2.715 1.747 6.583 1.747 2.817 0 4.972-.865 2.154-.865 3.581-2.416a9.1 9.1 0 0 0 2.042-3.592h8.265q-.807 4.16-3.465 7.321-2.66 3.16-6.658 4.943-4 1.783-8.855 1.783M2557.55 541.605q-7.247 0-12.499-2.491-5.251-2.491-8.095-7.116-2.845-4.623-2.845-11.018h9.018q.023 3.976 1.737 6.844 1.716 2.867 4.959 4.387t7.762 1.52q4.121 0 7.165-1.189 3.045-1.188 4.748-3.373 1.703-2.184 1.703-5.14 0-2.332-1.158-4.065-1.158-1.732-3.706-3.03t-6.766-2.283l-6.656-1.572q-9.19-2.17-13.395-6.119-4.204-3.95-4.204-10.236 0-5.345 2.682-9.315 2.684-3.97 7.557-6.178t11.371-2.208q6.534 0 11.336 2.318 4.801 2.317 7.479 6.6 2.677 4.284 2.847 10.197h-8.737q-.318-5.242-3.816-8.225t-9.251-2.982q-3.627 0-6.443 1.189-2.815 1.188-4.42 3.299t-1.605 4.858q0 2.199 1.169 3.817t3.718 2.854q2.547 1.236 6.715 2.24l6.518 1.563q4.575 1.076 7.921 2.615t5.531 3.595 3.257 4.688 1.072 5.886q0 5.447-2.798 9.519-2.798 4.071-7.892 6.311t-11.979 2.24M2606.51 541.605q-6.11 0-10.727-2.858t-7.185-7.907q-2.57-5.049-2.569-11.629 0-6.615 2.569-11.697t7.185-7.957q4.617-2.874 10.727-2.874 3.852 0 7.118 1.163 3.267 1.162 5.743 3.265a17 17 0 0 1 4.01 4.956q1.535 2.855 1.931 6.278h-8.536a11 11 0 0 0-1.141-3.331 9.1 9.1 0 0 0-2.112-2.604q-1.294-1.096-3.023-1.708-1.729-.61-3.932-.61-3.691 0-6.352 1.864-2.66 1.864-4.074 5.262-1.415 3.399-1.415 7.993 0 4.553 1.415 7.922 1.413 3.369 4.061 5.216t6.365 1.847q2.203 0 3.899-.581 1.695-.58 2.922-1.679a9.5 9.5 0 0 0 2.046-2.627q.818-1.53 1.241-3.396h8.636q-.367 3.357-1.891 6.215a17 17 0 0 1-4.019 4.984q-2.496 2.127-5.774 3.31t-7.118 1.183M2632.6 540.628V497.66h8.247v6.945h.148q1.18-3.52 3.729-5.5t6.651-1.98q.98 0 1.802.067t1.332.134v8.016q-.487-.1-1.757-.251-1.27-.15-2.782-.15-2.39 0-4.395 1.106t-3.189 3.385-1.184 5.802v25.394zM2662.17 540.628V497.66h8.586v42.968zm-.204-51.758V480h8.993v8.87zM2680.43 557.637V497.66h8.44v6.172h.103q1.362-2.35 3.408-3.904a14.6 14.6 0 0 1 4.588-2.333 18 18 0 0 1 5.309-.779q5.579 0 9.759 2.815t6.506 7.844q2.327 5.029 2.327 11.654 0 6.636-2.316 11.668-2.316 5.033-6.499 7.854-4.184 2.82-9.806 2.82-2.782 0-5.227-.804a13.9 13.9 0 0 1-4.448-2.432q-2.002-1.628-3.445-4.088h-.096v23.49zm20.08-23.571q3.471 0 6.086-1.717 2.614-1.717 4.095-5.049t1.481-8.171q0-4.872-1.481-8.196-1.481-3.325-4.095-5.042-2.615-1.718-6.086-1.718-3.666 0-6.38 1.851t-4.19 5.209-1.477 7.896q0 4.505 1.477 7.871 1.477 3.365 4.19 5.216t6.38 1.85M2749.17 497.66v7.097h-24.915v-7.097zm-17.339-11.719h8.602v43.318q0 2.38.986 3.326.987.945 3.558.945h4.193v7.098h-5.415q-6.062 0-8.993-2.538t-2.931-7.718zM175.762 100.628V57.66h8.247v6.945h.148q1.18-3.52 3.729-5.5t6.65-1.98q.98 0 1.803.067.822.067 1.332.134v8.016q-.487-.1-1.757-.251-1.27-.15-2.783-.15-2.389 0-4.394 1.106t-3.189 3.385-1.184 5.802v25.394zM219.95 101.627q-4.92 0-8.866-1.575t-6.363-4.71q-2.418-3.134-2.732-7.784h8.491q.353 3.48 2.736 5.365 2.384 1.884 6.556 1.884 4.102 0 6.459-1.67 2.357-1.671 2.357-4.233 0-2.193-1.68-3.518-1.681-1.326-4.49-1.933l-7.122-1.569q-6.068-1.359-9.2-4.447-3.13-3.088-3.131-7.863 0-3.801 2.055-6.702 2.054-2.901 5.764-4.534t8.637-1.633q4.842 0 8.601 1.718 3.757 1.718 5.938 4.862 2.18 3.143 2.301 7.489h-8.204q-.042-3.14-2.366-5.202t-6.153-2.062q-3.66 0-5.823 1.711-2.162 1.71-2.162 4.192 0 2.185 1.655 3.531 1.654 1.346 4.534 2.006l7.328 1.613q6.294 1.406 9.246 4.301 2.95 2.894 2.951 7.569 0 4.09-2.244 7.053-2.244 2.961-6.162 4.551t-8.911 1.59M1149.01 100.628q-6.41 0-9.181-2.379-2.772-2.377-2.772-7.95V40h8.602v49.421q0 2.484.856 3.333t3.289.849h1.691v7.025zM1165.98 75.906v24.722h-8.602V40h8.602v28.332h-2.152q2.094-5.781 5.861-8.648t9.11-2.868q4.434 0 7.949 1.922 3.516 1.922 5.56 5.705 2.045 3.785 2.045 9.419v26.766h-8.602V74.922q0-5.157-2.464-7.791t-6.954-2.634q-2.914 0-5.258 1.181-2.343 1.18-3.719 3.696t-1.376 6.532M1219.95 101.627q-4.92 0-8.866-1.575t-6.363-4.71-2.732-7.784h8.491q.352 3.48 2.736 5.365 2.384 1.884 6.556 1.884 4.102 0 6.459-1.67 2.357-1.671 2.357-4.233 0-2.193-1.68-3.518-1.681-1.326-4.49-1.933l-7.122-1.569q-6.069-1.359-9.2-4.447t-3.131-7.863q0-3.801 2.055-6.702 2.054-2.901 5.764-4.534t8.637-1.633q4.842 0 8.601 1.718 3.757 1.718 5.938 4.862 2.18 3.143 2.301 7.489h-8.204q-.042-3.14-2.366-5.202t-6.153-2.062q-3.66 0-5.823 1.711-2.162 1.71-2.162 4.192 0 2.185 1.655 3.531 1.654 1.346 4.534 2.006l7.328 1.613q6.294 1.406 9.246 4.301 2.95 2.894 2.951 7.569 0 4.09-2.244 7.053-2.244 2.961-6.162 4.551t-8.911 1.59M2167.26 100.628V57.66h8.248v6.945h.148q1.18-3.52 3.729-5.5t6.65-1.98q.98 0 1.803.067.822.067 1.332.134v8.016q-.488-.1-1.757-.251-1.27-.15-2.783-.15-2.39 0-4.394 1.106t-3.189 3.385-1.184 5.802v25.394zM2218.64 101.471q-2.78 0-5.275-.804a14.1 14.1 0 0 1-4.54-2.447q-2.046-1.642-3.49-4.131h-.073v6.539h-8.44V40h8.602v23.876h.074q1.383-2.38 3.393-3.941a14.2 14.2 0 0 1 4.511-2.34 17.6 17.6 0 0 1 5.268-.779q5.578 0 9.758 2.815t6.507 7.844 2.327 11.654q0 6.636-2.316 11.668t-6.5 7.854q-4.183 2.82-9.806 2.82m-1.739-7.405q3.472 0 6.087-1.717 2.613-1.718 4.095-5.049 1.48-3.332 1.481-8.171 0-4.872-1.481-8.196-1.482-3.325-4.095-5.042-2.615-1.718-6.087-1.718-3.665 0-6.379 1.851t-4.19 5.209q-1.477 3.357-1.477 7.896 0 4.506 1.477 7.871 1.476 3.365 4.19 5.216t6.379 1.85M314.016 101.625l-5.246-5.246 9.347-9.322q1.522-1.487 3.111-3.025a243 243 0 0 1 3.243-3.079q1.654-1.542 3.255-3.029a262 262 0 0 1 3.143-2.875l.48 2.441a415 415 0 0 1-3.508.183q-1.809.087-3.648.144t-3.658.057h-39.873v-7.551h39.873q1.82 0 3.658.057 1.839.057 3.648.139t3.508.188l-.48 2.463a3258 3258 0 0 0-4.209-3.88 337 337 0 0 1-4.346-4.073 402 402 0 0 1-4.197-4.063l-9.354-9.321 5.253-5.261 27.519 27.526zM1314.02 101.625l-5.246-5.246 9.347-9.322q1.523-1.487 3.111-3.025a243 243 0 0 1 3.243-3.079q1.655-1.542 3.255-3.029a262 262 0 0 1 3.143-2.875l.48 2.441a415 415 0 0 1-3.508.183q-1.809.087-3.648.144t-3.658.057h-39.873v-7.551h39.873q1.82 0 3.658.057 1.839.057 3.648.139t3.508.188l-.48 2.463a3258 3258 0 0 0-4.209-3.88 337 337 0 0 1-4.346-4.073 402 402 0 0 1-4.197-4.063l-9.354-9.321 5.253-5.261 27.519 27.526zM2314.02 101.625l-5.246-5.246 9.347-9.322q1.523-1.487 3.111-3.025a243 243 0 0 1 3.243-3.079q1.655-1.542 3.255-3.029a262 262 0 0 1 3.143-2.875l.48 2.441a415 415 0 0 1-3.508.183q-1.809.087-3.648.144t-3.658.057h-39.873v-7.551h39.873q1.82 0 3.658.057 1.839.057 3.648.139t3.508.188l-.48 2.463a3258 3258 0 0 0-4.209-3.88 337 337 0 0 1-4.346-4.073 402 402 0 0 1-4.197-4.063l-9.354-9.321 5.253-5.261 27.519 27.526zM385.524 100.628V40h23.088q6.508 0 11.248 2.3 4.739 2.301 7.307 6.54 2.568 4.24 2.568 10.05 0 5.774-2.723 10.004-2.724 4.231-7.613 6.517-4.888 2.285-11.416 2.285h-17.247v-7.697h17.515q3.899 0 6.717-1.353 2.819-1.352 4.337-3.855 1.518-2.502 1.518-5.901 0-3.44-1.534-5.905t-4.354-3.818-6.751-1.353h-13.607v52.814zm34.971 0L406.11 73.322h9.919l14.644 27.306zM453.579 101.471q-4.394 0-7.929-1.921t-5.58-5.722q-2.044-3.802-2.044-9.403V57.66h8.602v25.706q0 5.15 2.484 7.788t6.934 2.637q2.913 0 5.257-1.181 2.343-1.18 3.719-3.713 1.376-2.532 1.376-6.516V57.66H475v42.968h-8.432V89.955h1.983q-2.094 5.749-5.858 8.633t-9.114 2.883M500.594 101.627q-4.92 0-8.865-1.575t-6.363-4.71-2.733-7.784h8.492q.351 3.48 2.735 5.365 2.384 1.884 6.557 1.884 4.101 0 6.459-1.67 2.357-1.671 2.357-4.233 0-2.193-1.681-3.518-1.68-1.326-4.489-1.933l-7.122-1.569q-6.07-1.359-9.2-4.447-3.131-3.088-3.131-7.863 0-3.801 2.054-6.702 2.055-2.901 5.764-4.534t8.638-1.633q4.842 0 8.6 1.718t5.938 4.862q2.18 3.143 2.302 7.489h-8.205q-.041-3.14-2.365-5.202t-6.153-2.062q-3.661 0-5.823 1.711-2.163 1.71-2.163 4.192 0 2.185 1.655 3.531t4.535 2.006l7.327 1.613q6.295 1.406 9.246 4.301 2.952 2.894 2.952 7.569 0 4.09-2.245 7.053-2.244 2.961-6.161 4.551-3.918 1.59-8.912 1.59M546.207 57.66v7.097h-24.915V57.66zm-17.339-11.719h8.602v43.318q0 2.38.986 3.326.987.945 3.558.945h4.193v7.098h-5.415q-6.062 0-8.993-2.538t-2.931-7.718zM1385.52 100.628V40h9.053v52.711h28.659v7.917zM1430.04 100.628V57.66h8.586v42.968zm-.203-51.758V40h8.992v8.87zM1469.03 57.66v7.097h-24.915V57.66zm-17.339-11.719h8.602v43.318q0 2.38.987 3.326.986.945 3.557.945h4.193v7.098h-5.415q-6.062 0-8.993-2.538t-2.931-7.718zM1493.37 101.605q-6.374 0-10.956-2.885-4.584-2.886-7.043-7.955-2.46-5.07-2.46-11.554 0-6.559 2.556-11.642t7.071-7.984 10.373-2.902q4.564 0 8.257 1.624a18 18 0 0 1 6.336 4.624q2.644 3 4.058 7.112 1.415 4.112 1.415 9.087v2.352h-36.198V74.97h31.695l-3.783 1.987q0-4.013-1.438-6.955-1.439-2.943-4.06-4.547-2.622-1.606-6.202-1.606-3.538 0-6.147 1.606-2.609 1.604-4.046 4.547-1.439 2.942-1.439 6.955v3.699q0 4.062 1.416 7.172t4.13 4.856q2.714 1.747 6.582 1.747 2.818 0 4.972-.865 2.155-.864 3.582-2.416a9.1 9.1 0 0 0 2.041-3.592h8.265q-.807 4.16-3.465 7.321-2.66 3.16-6.658 4.943t-8.854 1.783M1520.39 100.628V57.66h8.248v6.945h.148q1.179-3.52 3.729-5.5t6.65-1.98q.98 0 1.802.067t1.332.134v8.016q-.487-.1-1.756-.251-1.27-.15-2.783-.15-2.39 0-4.394 1.106t-3.19 3.385q-1.184 2.28-1.184 5.802v25.394zM1561.77 101.302q-4.28 0-7.642-1.451-3.363-1.45-5.318-4.341-1.956-2.891-1.956-7.164 0-3.688 1.412-6.04a10.4 10.4 0 0 1 3.804-3.726q2.392-1.374 5.452-2.091a56 56 0 0 1 6.32-1.095q4.05-.511 6.4-.822 2.349-.31 3.349-.976t1.001-2.212v-.364q0-2.103-1.027-3.712-1.027-1.61-2.974-2.53-1.946-.921-4.686-.921-2.721 0-4.815.898-2.094.899-3.329 2.457a6.44 6.44 0 0 0-1.397 3.555h-8.453q.233-4.116 2.507-7.247 2.274-3.13 6.261-4.917t9.343-1.787q3.964 0 7.135 1.014t5.387 2.9a12.5 12.5 0 0 1 3.385 4.531q1.169 2.644 1.169 5.906v29.461h-8.462v-6.089h-.163q-.89 1.73-2.454 3.282-1.564 1.551-4.056 2.516t-6.193.965m1.753-6.896q3.785 0 6.25-1.372 2.466-1.373 3.657-3.609t1.191-4.882v-5.02q-.443.337-1.448.64-1.005.304-2.429.587t-3.077.55-3.36.503a20.5 20.5 0 0 0-4.37 1.072q-2.034.753-3.286 2.091t-1.252 3.539q0 1.832.994 3.159.995 1.328 2.82 2.035t4.31.707M1613.49 57.66v7.097h-24.915V57.66zm-17.339-11.719h8.602v43.318q0 2.38.987 3.326.986.945 3.557.945h4.193v7.098h-5.415q-6.061 0-8.993-2.538-2.931-2.538-2.931-7.718zM1637.84 101.605q-6.374 0-10.956-2.885-4.584-2.886-7.043-7.955-2.46-5.07-2.459-11.554 0-6.559 2.555-11.642t7.071-7.984 10.373-2.902q4.564 0 8.257 1.624a18 18 0 0 1 6.336 4.624q2.645 3 4.058 7.112 1.415 4.112 1.415 9.087v2.352h-36.198V74.97h31.695l-3.783 1.987q0-4.013-1.438-6.955-1.439-2.943-4.06-4.547-2.622-1.606-6.202-1.606-3.538 0-6.147 1.606-2.608 1.604-4.046 4.547t-1.439 6.955v3.699q0 4.062 1.416 7.172t4.13 4.856q2.713 1.747 6.582 1.747 2.817 0 4.972-.865 2.155-.864 3.582-2.416a9.1 9.1 0 0 0 2.041-3.592h8.265q-.807 4.16-3.465 7.321t-6.658 4.943q-3.999 1.783-8.854 1.783M1685.38 100.628V40h9.052v25.667h30.126V40h9.053v60.628h-9.053V73.584h-30.126v27.044zM1757.09 101.302q-4.28 0-7.642-1.451-3.363-1.45-5.318-4.341t-1.955-7.164q0-3.688 1.412-6.04a10.4 10.4 0 0 1 3.803-3.726q2.392-1.374 5.453-2.091a56 56 0 0 1 6.319-1.095q4.052-.511 6.4-.822 2.35-.31 3.35-.976t1.001-2.212v-.364q0-2.103-1.028-3.712-1.027-1.61-2.973-2.53-1.946-.921-4.686-.921-2.721 0-4.815.898-2.094.899-3.329 2.457a6.45 6.45 0 0 0-1.398 3.555h-8.452q.232-4.116 2.507-7.247 2.274-3.13 6.261-4.917t9.343-1.787q3.963 0 7.134 1.014t5.388 2.9a12.5 12.5 0 0 1 3.385 4.531q1.168 2.644 1.168 5.906v29.461h-8.461v-6.089h-.163q-.89 1.73-2.454 3.282-1.564 1.551-4.056 2.516t-6.194.965m1.753-6.896q3.785 0 6.251-1.372 2.464-1.373 3.657-3.609 1.191-2.235 1.191-4.882v-5.02q-.444.337-1.449.64-1.004.304-2.428.587t-3.077.55q-1.654.267-3.36.503a20.5 20.5 0 0 0-4.37 1.072q-2.034.753-3.286 2.091t-1.252 3.539q0 1.832.994 3.159.994 1.328 2.819 2.035 1.826.707 4.31.707M1804.01 101.627q-4.92 0-8.866-1.575t-6.363-4.71-2.732-7.784h8.491q.352 3.48 2.736 5.365 2.384 1.884 6.556 1.884 4.102 0 6.459-1.67 2.357-1.671 2.357-4.233 0-2.193-1.68-3.518-1.68-1.326-4.489-1.933l-7.122-1.569q-6.07-1.359-9.201-4.447-3.13-3.088-3.13-7.863 0-3.801 2.054-6.702t5.764-4.534 8.637-1.633q4.843 0 8.601 1.718 3.757 1.718 5.938 4.862 2.18 3.143 2.301 7.489h-8.204q-.04-3.14-2.366-5.202t-6.153-2.062q-3.66 0-5.823 1.711-2.162 1.71-2.162 4.192 0 2.185 1.655 3.531 1.654 1.346 4.534 2.006l7.328 1.613q6.294 1.406 9.246 4.301 2.95 2.894 2.951 7.569 0 4.09-2.244 7.053-2.244 2.961-6.162 4.551t-8.911 1.59M1836.82 86.192V76.028h.77l18.346-18.368h10.65l-20.431 20.769h-1.354zm-7.928 14.436V40h8.602v60.628zm28.384 0-16.192-20.286 5.893-5.988 20.832 26.274zM1888.86 101.605q-6.372 0-10.956-2.885-4.584-2.886-7.043-7.955-2.459-5.07-2.459-11.554 0-6.559 2.556-11.642t7.07-7.984q4.516-2.902 10.373-2.902 4.564 0 8.257 1.624a18 18 0 0 1 6.337 4.624q2.643 3 4.058 7.112 1.414 4.112 1.414 9.087v2.352h-36.197V74.97h31.695l-3.783 1.987q0-4.013-1.439-6.955-1.438-2.943-4.06-4.547-2.62-1.606-6.201-1.606-3.54 0-6.147 1.606-2.608 1.604-4.047 4.547t-1.438 6.955v3.699q0 4.062 1.416 7.172t4.129 4.856q2.715 1.747 6.583 1.747 2.817 0 4.972-.865 2.154-.864 3.581-2.416a9.1 9.1 0 0 0 2.042-3.592h8.265q-.807 4.16-3.466 7.321-2.658 3.16-6.657 4.943t-8.855 1.783M1927.83 100.628q-6.41 0-9.181-2.379-2.772-2.377-2.772-7.95V40h8.602v49.421q0 2.484.856 3.333.857.849 3.289.849h1.691v7.025zM1948.15 100.628q-6.41 0-9.182-2.379-2.772-2.377-2.772-7.95V40h8.602v49.421q0 2.484.857 3.333.856.849 3.289.849h1.69v7.025zM2385.52 100.628V40h23.088q6.508 0 11.248 2.3 4.739 2.301 7.307 6.54 2.568 4.24 2.568 10.05 0 5.774-2.723 10.004-2.724 4.231-7.613 6.517-4.888 2.285-11.416 2.285h-17.247v-7.697h17.515q3.899 0 6.717-1.353 2.819-1.352 4.337-3.855 1.518-2.502 1.518-5.901 0-3.44-1.534-5.905t-4.354-3.818-6.751-1.353h-13.607v52.814zm34.971 0-14.385-27.306h9.919l14.644 27.306zM2453.58 101.471q-4.394 0-7.929-1.921t-5.58-5.722q-2.044-3.802-2.044-9.403V57.66h8.602v25.706q0 5.15 2.484 7.788t6.934 2.637q2.914 0 5.257-1.181 2.343-1.18 3.719-3.713 1.376-2.532 1.376-6.516V57.66h8.602v42.968h-8.432V89.955h1.983q-2.094 5.749-5.858 8.633t-9.114 2.883M2506.49 101.471q-2.782 0-5.275-.804a14.1 14.1 0 0 1-4.54-2.447q-2.046-1.642-3.49-4.131h-.074v6.539h-8.439V40h8.602v23.876h.074q1.383-2.38 3.393-3.941a14.2 14.2 0 0 1 4.51-2.34 17.6 17.6 0 0 1 5.268-.779q5.579 0 9.759 2.815t6.507 7.844q2.326 5.029 2.326 11.654 0 6.636-2.315 11.668t-6.5 7.854q-4.184 2.82-9.806 2.82m-1.739-7.405q3.472 0 6.086-1.717t4.095-5.049 1.481-8.171q0-4.872-1.481-8.196-1.48-3.325-4.095-5.042-2.614-1.718-6.086-1.718-3.666 0-6.379 1.851-2.714 1.85-4.191 5.209-1.476 3.357-1.477 7.896 0 4.506 1.477 7.871t4.191 5.216q2.713 1.85 6.379 1.85M2531.62 117.637v-7.232h4.642q1.373 0 2.366-.516t1.775-1.608q.781-1.092 1.429-2.831l1.971-5.122-16.613-42.668h9.187l8.582 23.567a276 276 0 0 1 2.311 6.65q1.11 3.331 2.149 6.657h-2.344a272 272 0 0 1 2.147-6.661 438 438 0 0 1 2.299-6.646l8.485-23.567h9.056l-19.516 50.49q-1.212 3.123-3.005 5.232-1.794 2.11-4.161 3.182t-5.297 1.073z" style="fill:#e6edf3;fill-rule:nonzero"/></svg>